<svg width="1920" height="936" viewBox="0 0 1920 936" fill="none" xmlns="http://www.w3.org/2000/svg">
  <g clip-path="url(#clip0_1291_2789)">
    <g filter="url(#filter0_d_1291_2789)">
      <path
        d="M838.158 463.921C463.355 349.748 349.398 755.272 0 564.067V0.135742H1919.52C1919.52 115.471 1920.43 463.921 1920.43 463.921C1661.35 637.009 1105.43 545.338 838.158 463.921Z"
        fill="url(#paint0_linear_1291_2789)" shape-rendering="crispEdges" />
      <path
        d="M838.158 463.921C463.355 349.748 349.398 755.272 0 564.067V0.135742H1919.52C1919.52 115.471 1920.43 463.921 1920.43 463.921C1661.35 637.009 1105.43 545.338 838.158 463.921Z"
        stroke="#F9F9FA" shape-rendering="crispEdges" />
    </g>
    <g filter="url(#filter1_d_1291_2789)">
      <path
        d="M0.515625 0H1921.21V596.755C1786.77 720.379 1360.48 526.179 1170.19 459.755C958.185 385.755 750.363 697.04 509.3 590.044C220.329 461.784 151.07 377.624 0.515625 384.614V0Z"
        fill="url(#paint1_linear_1291_2789)" shape-rendering="crispEdges" />
      <path
        d="M0.515625 0H1921.21V596.755C1786.77 720.379 1360.48 526.179 1170.19 459.755C958.185 385.755 750.363 697.04 509.3 590.044C220.329 461.784 151.07 377.624 0.515625 384.614V0Z"
        stroke="#F9F9FA" shape-rendering="crispEdges" />
    </g>
    <g filter="url(#filter2_d_1291_2789)">
      <path
        d="M1162.61 484.565C708.378 781.3 539.558 365.716 0.25 520.072V171.614H1919.98V539.186C1675.2 706.252 1498.51 265.131 1162.61 484.565Z"
        fill="url(#paint2_linear_1291_2789)" shape-rendering="crispEdges" />
      <path
        d="M1162.61 484.565C708.378 781.3 539.558 365.716 0.25 520.072V171.614H1919.98V539.186C1675.2 706.252 1498.51 265.131 1162.61 484.565Z"
        stroke="#F9F9FA" shape-rendering="crispEdges" />
    </g>
    <rect x="0.18457" y="0.135742" width="1920" height="935.864" fill="url(#paint3_linear_1291_2789)" />
    <circle cx="960.185" cy="540.65" r="368.08" fill="url(#paint4_radial_1291_2789)" />
  </g>
  <defs>
    <filter id="filter0_d_1291_2789" x="0" y="250" width="100%" height="100%" filterUnits="userSpaceOnUse"
      color-interpolation-filters="sRGB">
      <feFlood flood-opacity="0" result="BackgroundImageFix" />
      <feColorMatrix in="SourceAlpha" type="matrix" values="0 0 0 0 0 0 0 0 0 0 0 0 0 0 0 0 0 0 127 0"
        result="hardAlpha" />
      <feOffset dy="25" />
      <feGaussianBlur stdDeviation="25" />
      <feComposite in2="hardAlpha" operator="out" />
      <feColorMatrix type="matrix" values="0 0 0 0 0 0 0 0 0 0.443137 0 0 0 0 0.890196 0 0 0 0.15 0" />
      <feBlend mode="normal" in2="BackgroundImageFix" result="effect1_dropShadow_1291_2789" />
      <feBlend mode="normal" in="SourceGraphic" in2="effect1_dropShadow_1291_2789" result="shape" />
    </filter>
    <filter id="filter1_d_1291_2789" x="0" y="400" width="100%" height="100%" filterUnits="userSpaceOnUse"
      color-interpolation-filters="sRGB">
      <feFlood flood-opacity="0" result="BackgroundImageFix" />
      <feColorMatrix in="SourceAlpha" type="matrix" values="0 0 0 0 0 0 0 0 0 0 0 0 0 0 0 0 0 0 127 0"
        result="hardAlpha" />
      <feOffset dy="25" />
      <feGaussianBlur stdDeviation="25" />
      <feComposite in2="hardAlpha" operator="out" />
      <feColorMatrix type="matrix" values="0 0 0 0 0 0 0 0 0 0.443137 0 0 0 0 0.890196 0 0 0 0.15 0" />
      <feBlend mode="normal" in2="BackgroundImageFix" result="effect1_dropShadow_1291_2789" />
      <feBlend mode="normal" in="SourceGraphic" in2="effect1_dropShadow_1291_2789" result="shape" />
    </filter>
    <filter id="filter2_d_1291_2789" x="0" y="250" width="100%" height="100%" filterUnits="userSpaceOnUse"
      color-interpolation-filters="sRGB">
      <feFlood flood-opacity="0" result="BackgroundImageFix" />
      <feColorMatrix in="SourceAlpha" type="matrix" values="0 0 0 0 0 0 0 0 0 0 0 0 0 0 0 0 0 0 127 0"
        result="hardAlpha" />
      <feOffset dy="25" />
      <feGaussianBlur stdDeviation="25" />
      <feComposite in2="hardAlpha" operator="out" />
      <feColorMatrix type="matrix" values="0 0 0 0 0 0 0 0 0 0.443137 0 0 0 0 0.890196 0 0 0 0.15 0" />
      <feBlend mode="normal" in2="BackgroundImageFix" result="effect1_dropShadow_1291_2789" />
      <feBlend mode="normal" in="SourceGraphic" in2="effect1_dropShadow_1291_2789" result="shape" />
    </filter>
    <linearGradient id="paint0_linear_1291_2789" x1="961.257" y1="122.545" x2="961.257" y2="615.832"
      gradientUnits="userSpaceOnUse">
      <stop stop-color="#F5F5F7" stop-opacity="0" />
      <stop offset="1" stop-color="#0071E3" stop-opacity="0.03" />
    </linearGradient>
    <linearGradient id="paint1_linear_1291_2789" x1="716.016" y1="62.7546" x2="700.638" y2="514.22"
      gradientUnits="userSpaceOnUse">
      <stop stop-color="#F5F5F7" stop-opacity="0" />
      <stop offset="1" stop-color="#0071E3" stop-opacity="0.03" />
    </linearGradient>
    <linearGradient id="paint2_linear_1291_2789" x1="894.94" y1="123.667" x2="879.98" y2="494.05"
      gradientUnits="userSpaceOnUse">
      <stop stop-color="#F5F5F7" stop-opacity="0" />
      <stop offset="1" stop-color="#0071E3" stop-opacity="0.03" />
    </linearGradient>
    <linearGradient id="paint3_linear_1291_2789" x1="1920.18" y1="936" x2="0.18457" y2="936"
      gradientUnits="userSpaceOnUse">
      <stop stop-color="#F5F5F7" />
      <stop offset="0.500001" stop-color="#F5F5F7" stop-opacity="0" />
      <stop offset="0.980001" stop-color="#F5F5F7" />
    </linearGradient>
    <radialGradient id="paint4_radial_1291_2789" cx="0" cy="0" r="1" gradientUnits="userSpaceOnUse"
      gradientTransform="translate(960.185 540.65) rotate(90) scale(368.08)">
      <stop stop-color="#F4F5F7" />
      <stop offset="1" stop-color="#F5F5F7" stop-opacity="0" />
    </radialGradient>
    <clipPath id="clip0_1291_2789">
      <rect width="1920" height="936" fill="white" />
    </clipPath>
  </defs>
</svg>
