<svg width="512" height="512" viewBox="0 0 512 512" fill="none" xmlns="http://www.w3.org/2000/svg">
  <path
    d="M62.2408 406.167C42.0308 406.467 33.2108 379.257 50.2008 367.727C51.0308 367.157 55.7008 363.947 63.5008 359.207C175.681 285.007 234.861 176.117 234.861 43.4266C234.861 31.7766 244.311 22.3266 255.961 22.3266C267.611 22.3266 277.061 31.7766 277.061 43.4266C277.061 176.117 336.241 285.007 448.411 359.207C456.211 363.947 460.891 367.157 461.711 367.727C471.111 374.247 473.601 387.057 467.341 396.627C461.071 406.197 448.331 409.037 438.601 403.017C434.681 400.597 430.821 398.137 427.011 395.647C308.041 323.577 203.411 323.877 84.9008 395.657C77.9008 399.817 70.8008 406.397 62.2508 406.167H62.2408ZM255.961 180.097C240.511 226.937 216.681 269.717 184.781 307.877C229.741 295.867 282.181 295.867 327.141 307.877C295.241 269.717 271.411 226.937 255.961 180.097Z"
    fill="#0071E3" />
  <path
    d="M104.571 489.667C86.3208 490.137 76.1908 466.267 89.7708 453.537C132.701 411.277 193.291 387.047 255.981 387.047C318.671 387.047 379.191 411.247 422.121 453.457C430.431 461.627 430.541 474.987 422.371 483.297C414.201 491.607 400.841 491.717 392.541 483.547C322.171 411.737 189.691 411.767 119.371 483.607C115.261 487.647 109.921 489.667 104.571 489.667Z"
    fill="#0071E3" />
</svg>
