<svg width="79" height="22" fill="none" xmlns="http://www.w3.org/2000/svg"><path d="M39.747 5.327a1.083 1.083 0 0 1-1.085-1.074c0-.591.488-1.075 1.085-1.075.596 0 1.085.484 1.085 1.075 0 .59-.489 1.074-1.085 1.074ZM38.951 16.839v-9.65h1.573v9.65h-1.573ZM44.14 8.478v8.36h1.573v-8.36h2.215v-1.29h-2.215V6.16c0-1.056.452-1.602 1.573-1.602.28 0 .543.009.733.045V3.357a5.514 5.514 0 0 0-1.049-.09c-1.853.001-2.83.923-2.83 2.848v1.074h-1.618v1.289h1.618ZM50.848 16.839V8.478H49.23v-1.29h1.618V6.116c0-1.925.977-2.847 2.83-2.847.38 0 .723.027 1.049.09v1.244a4.32 4.32 0 0 0-.733-.045c-1.12 0-1.573.546-1.573 1.602v1.03h2.215v1.289h-2.215v8.36h-1.573ZM67.157 16.839V3.357h1.573V16.84h-1.573ZM75.095 17.009c-2.17 0-3.662-1.038-3.843-2.632h1.61c.262.806 1.04 1.334 2.287 1.334 1.31 0 2.242-.618 2.242-1.495v-.018c0-.653-.497-1.11-1.7-1.396l-1.51-.358c-1.826-.43-2.648-1.218-2.648-2.605v-.01c0-1.602 1.555-2.81 3.625-2.81 2.043 0 3.462 1.011 3.68 2.587H77.29c-.208-.761-.967-1.29-2.142-1.29-1.157 0-2.007.592-2.007 1.442v.018c0 .653.488 1.065 1.636 1.343l1.5.358c1.836.438 2.722 1.226 2.722 2.605v.018c0 1.718-1.69 2.909-3.905 2.909Z" fill="#282829"/><path fill-rule="evenodd" clip-rule="evenodd" d="M56.001 12.05c0 3.025 1.682 4.959 4.466 4.959 2.297 0 3.689-1.29 4.023-2.596l.018-.072h-1.573l-.036.08c-.262.583-1.076 1.2-2.396 1.2-1.735 0-2.847-1.163-2.892-3.16h7.015v-.608c0-2.883-1.61-4.834-4.258-4.834-2.649 0-4.367 2.04-4.367 5.022v.009Zm1.637-.833c.171-1.835 1.274-2.81 2.72-2.81 1.438 0 2.505.903 2.668 2.81h-5.388Z" fill="#282829"/><path d="M28.085 3.921V16.84h8.082v-1.45h-6.455v-4.44h6.12V9.516h-6.12V5.372h6.455v-1.45h-8.082Z" fill="#282829"/><path fill-rule="evenodd" clip-rule="evenodd" d="M11.109 2.248c.511 0 .925.41.925.917 0 5.07 2.364 8.943 6.333 11.535a13.334 13.334 0 0 1 .428.269l.037.024.01.007.004.003h.001l-.527.754.528-.753c.412.283.522.84.247 1.256a.931.931 0 0 1-1.261.277c-.154-.094-.305-.19-.455-.287a16.302 16.302 0 0 0-1.656-.861c-1.283-.576-2.948-1.122-4.614-1.122-1.667 0-3.331.546-4.614 1.122a16.32 16.32 0 0 0-1.656.861c-.15.098-.302.193-.455.287a.931.931 0 0 1-1.261-.277.911.911 0 0 1 .247-1.256l.527.753-.527-.753.002-.001.003-.003.01-.007.037-.024c.031-.02.075-.05.131-.085.077-.05.177-.112.297-.184 3.97-2.592 6.333-6.466 6.333-11.535 0-.506.415-.917.926-.917Zm0 6.365a14.438 14.438 0 0 1-2.294 4.075 11.005 11.005 0 0 1 2.294-.254c.788 0 1.56.098 2.293.255a14.438 14.438 0 0 1-2.293-4.076Z" fill="#282829"/><path fill-rule="evenodd" clip-rule="evenodd" d="M11.11 17.524c-1.985 0-3.756.764-4.987 1.964a.932.932 0 0 1-1.309-.01.91.91 0 0 1 .01-1.296c1.58-1.541 3.82-2.492 6.287-2.492s4.701.949 6.282 2.487a.91.91 0 0 1 .01 1.297.932.932 0 0 1-1.308.01c-1.231-1.198-2.998-1.96-4.984-1.96Z" fill="#282829"/></svg>