<svg width="99" height="28" fill="none" xmlns="http://www.w3.org/2000/svg"><path d="M45.144 6.332a1.477 1.477 0 0 1-1.465-1.48c0-.814.659-1.48 1.465-1.48s1.465.666 1.465 1.48-.66 1.48-1.465 1.48ZM44.07 22.192V8.897h2.124v13.295h-2.125ZM51.078 10.673v11.52h2.124v-11.52h2.992V8.897h-2.992V7.479c0-1.456.611-2.208 2.125-2.208.379 0 .733.012.989.062V3.618a7.303 7.303 0 0 0-1.416-.123c-2.503 0-3.822 1.27-3.822 3.922v1.48h-2.186v1.776h2.186ZM60.138 22.192V10.673h-2.186V8.897h2.186v-1.48c0-2.652 1.319-3.922 3.822-3.922.512 0 .976.037 1.416.123v1.715c-.257-.05-.61-.062-.99-.062-1.513 0-2.124.752-2.124 2.208v1.418h2.992v1.776h-2.992v11.52h-2.124ZM82.165 22.192V3.618h2.124v18.574h-2.124ZM92.885 22.427c-2.93 0-4.945-1.43-5.189-3.626h2.173c.355 1.11 1.405 1.837 3.09 1.837 1.77 0 3.028-.85 3.028-2.06v-.024c0-.9-.672-1.53-2.296-1.924l-2.039-.493c-2.466-.592-3.578-1.678-3.578-3.59v-.012c0-2.207 2.1-3.872 4.897-3.872 2.76 0 4.676 1.393 4.97 3.564h-2.089c-.28-1.048-1.306-1.776-2.893-1.776-1.563 0-2.711.814-2.711 1.986v.024c0 .9.66 1.468 2.21 1.85l2.027.494c2.478.604 3.675 1.69 3.675 3.589v.024c0 2.368-2.283 4.009-5.275 4.009Z" fill="#282829"/><path fill-rule="evenodd" clip-rule="evenodd" d="M67.098 15.594c0 4.169 2.27 6.833 6.031 6.833 3.102 0 4.982-1.776 5.434-3.577l.024-.099h-2.124l-.05.111c-.353.802-1.452 1.653-3.235 1.653-2.344 0-3.846-1.603-3.907-4.354h9.475v-.838c0-3.972-2.173-6.66-5.751-6.66-3.578 0-5.897 2.812-5.897 6.919v.012Zm2.21-1.147c.232-2.528 1.721-3.873 3.675-3.873 1.941 0 3.382 1.246 3.602 3.873h-7.277Z" fill="#282829"/><path d="M29.393 4.395v17.797h10.916v-1.998H31.59v-6.117h8.266v-1.973H31.59v-5.71h8.718V4.394H29.393Z" fill="#282829"/><path fill-rule="evenodd" clip-rule="evenodd" d="M13.259 3.372c.608 0 1.102.498 1.102 1.113 0 6.156 2.813 10.86 7.539 14.008a15.976 15.976 0 0 1 .553.356l.013.01.004.002.001.001-.627.916.628-.915c.491.344.621 1.02.294 1.524a1.095 1.095 0 0 1-1.501.338c-.183-.115-.364-.23-.542-.349-.05-.03-.103-.063-.16-.096a19.262 19.262 0 0 0-1.812-.95c-1.527-.7-3.508-1.362-5.492-1.362-1.985 0-3.966.662-5.493 1.362a19.263 19.263 0 0 0-1.972 1.046c-.178.118-.359.234-.542.349a1.095 1.095 0 0 1-1.5-.338 1.12 1.12 0 0 1 .293-1.524l.628.915-.628-.916.003-.001.004-.003.012-.009.044-.03c.036-.024.089-.06.156-.103.091-.06.21-.135.353-.223 4.726-3.148 7.54-7.852 7.54-14.008 0-.615.493-1.113 1.102-1.113Zm0 7.73a17.634 17.634 0 0 1-2.731 4.948 12.86 12.86 0 0 1 2.73-.309c.939 0 1.859.12 2.731.31a17.634 17.634 0 0 1-2.73-4.95Z" fill="#282829"/><path fill-rule="evenodd" clip-rule="evenodd" d="M13.26 21.922c-2.363 0-4.471.929-5.937 2.386a1.094 1.094 0 0 1-1.558-.012 1.121 1.121 0 0 1 .012-1.574c1.881-1.872 4.546-3.026 7.484-3.026 2.937 0 5.597 1.152 7.479 3.02.434.432.44 1.136.013 1.575a1.094 1.094 0 0 1-1.559.013c-1.465-1.455-3.569-2.381-5.933-2.381Z" fill="#282829"/></svg>