<svg width="621" height="178" viewBox="0 0 621 178" fill="none" xmlns="http://www.w3.org/2000/svg">
  <path fill-rule="evenodd" clip-rule="evenodd"
    d="M40.112 177.673a.75.75 0 0 1-.75-.75v-33.577H1.526a.75.75 0 1 1 0-1.5h37.836v-48.5H1.526a.75.75 0 0 1 0-1.5h37.836v-48.5H1.526a.75.75 0 0 1 0-1.5h37.836V1.42a.75.75 0 0 1 1.5 0v40.427h48.5V1.42a.75.75 0 0 1 1.5 0v40.427h48.5V1.42a.75.75 0 0 1 1.5 0v40.427h48.5V1.42a.75.75 0 0 1 1.5 0v40.427h48.5V1.42a.75.75 0 0 1 1.5 0v40.427h48.5V1.42a.75.75 0 0 1 1.5 0v40.427h48.5V1.42a.75.75 0 0 1 1.5 0v40.427h48.5V1.42a.75.75 0 0 1 1.5 0v40.427h48.5V1.42a.75.75 0 0 1 1.5 0v40.427h48.5V1.42a.75.75 0 0 1 1.5 0v40.427h48.5V1.42a.75.75 0 0 1 1.5 0v40.427h48.5V1.42a.75.75 0 0 1 1.5 0v40.427h28.612a.75.75 0 0 1 0 1.5h-28.612v48.5h28.612a.75.75 0 0 1 0 1.5h-28.612v48.5h28.612a.75.75 0 0 1 0 1.5h-28.612v33.577a.75.75 0 1 1-1.5 0v-33.577h-48.5v33.577a.75.75 0 1 1-1.5 0v-33.577h-48.5v33.577a.75.75 0 1 1-1.5 0v-33.577h-48.5v33.577a.75.75 0 1 1-1.5 0v-33.577h-48.5v33.577a.75.75 0 1 1-1.5 0v-33.577h-48.5v33.577a.75.75 0 1 1-1.5 0v-33.577h-48.5v33.577a.75.75 0 1 1-1.5 0v-33.577h-48.5v33.577a.75.75 0 1 1-1.5 0v-33.577h-48.5v33.577a.75.75 0 1 1-1.5 0v-33.577h-48.5v33.577a.75.75 0 1 1-1.5 0v-33.577h-48.5v33.577a.75.75 0 1 1-1.5 0v-33.577h-48.5v33.577a.75.75 0 0 1-.75.75Zm.75-35.827h48.5v-48.5h-48.5v48.5Zm50 0h48.5v-48.5h-48.5v48.5Zm50 0h48.5v-48.5h-48.5v48.5Zm50 0h48.5v-48.5h-48.5v48.5Zm50 0h48.5v-48.5h-48.5v48.5Zm50 0h48.5v-48.5h-48.5v48.5Zm50 0h48.5v-48.5h-48.5v48.5Zm50 0h48.5v-48.5h-48.5v48.5Zm50 0h48.5v-48.5h-48.5v48.5Zm50 0h48.5v-48.5h-48.5v48.5Zm50 0h48.5v-48.5h-48.5v48.5Zm48.5-98.5v48.5h-48.5v-48.5h48.5Zm-50 0v48.5h-48.5v-48.5h48.5Zm-50 0v48.5h-48.5v-48.5h48.5Zm-50 0v48.5h-48.5v-48.5h48.5Zm-50 0v48.5h-48.5v-48.5h48.5Zm-50 0v48.5h-48.5v-48.5h48.5Zm-50 0v48.5h-48.5v-48.5h48.5Zm-50 0v48.5h-48.5v-48.5h48.5Zm-50 0v48.5h-48.5v-48.5h48.5Zm-50 0v48.5h-48.5v-48.5h48.5Zm-50 0v48.5h-48.5v-48.5h48.5Z"
    fill="url(#a)" />
  <defs>
    <radialGradient id="a" cx="0" cy="0" r="1" gradientUnits="userSpaceOnUse"
      gradientTransform="matrix(0 100.267 -815.572 0 310.5 89.171)">
      <stop stop-color="#E7EAF1" />
      <stop offset="1" stop-color="#F5F5F7" />
    </radialGradient>
  </defs>
</svg>
