<svg width="95" height="28" fill="none" xmlns="http://www.w3.org/2000/svg"><path d="M47.797 7.11a1.308 1.308 0 0 1-1.304-1.304c0-.718.587-1.305 1.304-1.305.718 0 1.305.587 1.305 1.305 0 .717-.587 1.304-1.305 1.304ZM46.84 21.091V9.371h1.892v11.72H46.84ZM53.08 10.937v10.154h1.892V10.937h2.664V9.372h-2.664v-1.25c0-1.283.544-1.947 1.892-1.947.337 0 .652.011.88.055V4.719a6.567 6.567 0 0 0-1.26-.11c-2.23 0-3.403 1.12-3.403 3.458v1.305h-1.946v1.565h1.946ZM61.147 21.091V10.937h-1.946V9.372h1.946V8.067c0-2.337 1.175-3.457 3.403-3.457.457 0 .87.033 1.261.109v1.51c-.228-.043-.543-.054-.88-.054-1.348 0-1.892.664-1.892 1.946v1.25h2.663v1.566H63.04v10.154h-1.892ZM80.76 21.091V4.719h1.891V21.09H80.76ZM90.305 21.298c-2.61 0-4.403-1.261-4.62-3.197h1.934c.316.979 1.25 1.62 2.75 1.62 1.577 0 2.697-.75 2.697-1.815v-.022c0-.794-.598-1.348-2.044-1.696l-1.815-.435c-2.197-.522-3.186-1.478-3.186-3.164v-.01c0-1.946 1.87-3.414 4.36-3.414 2.457 0 4.163 1.229 4.424 3.142h-1.859c-.25-.924-1.163-1.566-2.576-1.566-1.392 0-2.414.718-2.414 1.75v.022c0 .794.587 1.294 1.968 1.631l1.805.435c2.207.533 3.272 1.49 3.272 3.164v.021c0 2.088-2.033 3.534-4.696 3.534Z" fill="#1E1E1E"/><path fill-rule="evenodd" clip-rule="evenodd" d="M67.344 15.275c0 3.674 2.022 6.023 5.37 6.023 2.762 0 4.436-1.566 4.838-3.153l.022-.087h-1.891l-.044.098c-.315.706-1.294 1.457-2.88 1.457-2.088 0-3.425-1.414-3.48-3.838h8.436v-.74c0-3.5-1.935-5.87-5.12-5.87s-5.25 2.479-5.25 6.099v.01Zm1.968-1.011c.206-2.229 1.533-3.414 3.272-3.414 1.729 0 3.011 1.098 3.207 3.414h-6.48Z" fill="#1E1E1E"/><path d="M33.773 5.404V21.09h9.72V19.33H35.73v-5.392h7.36v-1.74h-7.36V7.165h7.762V5.404h-9.719Z" fill="#1E1E1E"/><path fill-rule="evenodd" clip-rule="evenodd" d="M13.359 3.372c.615 0 1.113.498 1.113 1.113 0 6.156 2.842 10.86 7.615 14.008a15.962 15.962 0 0 1 .559.356l.013.01.004.002.001.001h.001l-.634.916.635-.915a1.113 1.113 0 0 1-1.22 1.862 23.02 23.02 0 0 1-.547-.349c-.05-.03-.104-.063-.162-.096a19.52 19.52 0 0 0-1.83-.95c-1.542-.7-3.544-1.362-5.548-1.362s-4.006.662-5.548 1.362a19.524 19.524 0 0 0-1.992 1.046c-.18.118-.363.235-.547.349a1.113 1.113 0 0 1-1.22-1.862l.635.915c-.635-.915-.635-.915-.634-.916l.002-.001.004-.003.013-.009a10.803 10.803 0 0 1 .558-.356c4.774-3.148 7.616-7.852 7.616-14.008 0-.615.498-1.113 1.113-1.113Zm0 7.73A17.582 17.582 0 0 1 10.6 16.05c.88-.19 1.81-.31 2.758-.31.947 0 1.877.12 2.758.31a17.582 17.582 0 0 1-2.758-4.95Z" fill="url(#a)"/><path fill-rule="evenodd" clip-rule="evenodd" d="M13.361 21.923c-2.388 0-4.517.928-5.997 2.385A1.113 1.113 0 0 1 5.8 22.722c1.901-1.872 4.593-3.026 7.56-3.026 2.967 0 5.654 1.152 7.555 3.02a1.113 1.113 0 0 1-1.561 1.588c-1.48-1.455-3.606-2.381-5.994-2.381Z" fill="url(#b)"/><defs><linearGradient id="a" x1="3.573" y1="12.131" x2="23.144" y2="12.131" gradientUnits="userSpaceOnUse"><stop stop-color="#37B882"/><stop offset=".33" stop-color="#0071E3"/><stop offset=".66" stop-color="#0A688E"/><stop offset="1" stop-color="#003D9D"/></linearGradient><linearGradient id="b" x1="5.469" y1="22.162" x2="21.248" y2="22.162" gradientUnits="userSpaceOnUse"><stop stop-color="#37B882"/><stop offset=".33" stop-color="#0071E3"/><stop offset=".66" stop-color="#0A688E"/><stop offset="1" stop-color="#003D9D"/></linearGradient></defs></svg>