<svg width="62" height="64" viewBox="0 0 62 64" fill="none" xmlns="http://www.w3.org/2000/svg">
<path d="M38.3813 0H9.77034C7.80831 0 6.21777 1.58815 6.21777 3.54724V60.4528C6.21777 62.4118 7.80832 64 9.77035 64H53.817C55.779 64 57.3696 62.4118 57.3696 60.4528V19.1417L38.3813 0Z" fill="#FE6565" fill-opacity="0.9"/>
<path d="M57.3702 19.2878H41.7967C39.8347 19.2878 38.2441 17.6996 38.2441 15.7405V0H38.3819L57.3702 19.1417V19.2878Z" fill="white" fill-opacity="0.5"/>
<g filter="url(#filter0_bd_437_2258)">
<rect x="0.0361328" y="25.6512" width="51.3728" height="25.6479" rx="6" fill="#FE2020" fill-opacity="0.15" shape-rendering="crispEdges"/>
<rect x="0.536133" y="26.1512" width="50.3728" height="24.6479" rx="5.5" stroke="url(#paint0_linear_437_2258)" stroke-opacity="0.9" shape-rendering="crispEdges"/>
</g>
<path d="M34.1436 44.6043V32.3447H42.2349V34.4602H36.7293V37.7481H41.7554V39.7786H36.7293V44.6043H34.1436Z" fill="#F5F5F7"/>
<path d="M21.0254 44.6043V32.3447H25.8887C29.5619 32.3447 31.6854 34.5452 31.6854 38.3853V38.4023C31.6854 42.3614 29.5876 44.6043 25.8887 44.6043H21.0254ZM23.6112 42.4888H25.4777C27.7639 42.4888 29.0482 41.0615 29.0482 38.4448V38.4278C29.0482 35.9045 27.721 34.4602 25.4777 34.4602H23.6112V42.4888Z" fill="#F5F5F7"/>
<path d="M9.20947 44.6044V32.3448H14.304C16.9069 32.3448 18.645 34.01 18.645 36.5333V36.5503C18.645 39.0736 16.9069 40.7388 14.304 40.7388H11.7953V44.6044H9.20947ZM13.6704 34.3754H11.7953V38.7338H13.6704C15.1517 38.7338 16.025 37.9521 16.025 36.5588V36.5418C16.025 35.1485 15.1517 34.3754 13.6704 34.3754Z" fill="#F5F5F7"/>
<defs>
<filter id="filter0_bd_437_2258" x="-14.9639" y="10.6512" width="81.3726" height="55.6479" filterUnits="userSpaceOnUse" color-interpolation-filters="sRGB">
<feFlood flood-opacity="0" result="BackgroundImageFix"/>
<feGaussianBlur in="BackgroundImageFix" stdDeviation="7.5"/>
<feComposite in2="SourceAlpha" operator="in" result="effect1_backgroundBlur_437_2258"/>
<feColorMatrix in="SourceAlpha" type="matrix" values="0 0 0 0 0 0 0 0 0 0 0 0 0 0 0 0 0 0 127 0" result="hardAlpha"/>
<feOffset dx="5" dy="5"/>
<feGaussianBlur stdDeviation="2.5"/>
<feComposite in2="hardAlpha" operator="out"/>
<feColorMatrix type="matrix" values="0 0 0 0 0.993548 0 0 0 0 0.00645161 0 0 0 0 0.00645161 0 0 0 0.2 0"/>
<feBlend mode="normal" in2="effect1_backgroundBlur_437_2258" result="effect2_dropShadow_437_2258"/>
<feBlend mode="normal" in="SourceGraphic" in2="effect2_dropShadow_437_2258" result="shape"/>
</filter>
<linearGradient id="paint0_linear_437_2258" x1="0.37525" y1="25.8755" x2="21.3969" y2="44.025" gradientUnits="userSpaceOnUse">
<stop stop-color="#FE6565" stop-opacity="0.7"/>
<stop offset="0.5" stop-color="white" stop-opacity="0.15"/>
</linearGradient>
</defs>
</svg>
