<svg width="65" height="65" fill="none" xmlns="http://www.w3.org/2000/svg"><path d="M26.525 6.918a4.223 4.223 0 0 0-4.223 4.223v25.54L21.072 34a4.223 4.223 0 0 0-5.6-2.076c-2.069.95-3.023 3.528-2.078 5.595l5.327 13.17c1.79 3.45 5.925 6.554 10.503 7.033 5.695.597 14.817 1.354 20.204-5.951 2.905-3.94 2.527-11.463 2.527-11.463l-.433-9.525v-.036a4.223 4.223 0 0 0-6.87-3.291 4.223 4.223 0 0 0-6.994-2.816 4.224 4.224 0 0 0-6.91-2.652V11.141a4.223 4.223 0 0 0-4.223-4.223Z" fill="#F5F5F7"/><path d="M44.653 27.457a4.223 4.223 0 0 1 6.869 3.291v.036l.433 9.525s.378 7.523-2.527 11.463c-5.386 7.305-14.509 6.548-20.204 5.951-4.578-.48-8.714-3.583-10.503-7.033l-5.327-13.17c-.945-2.067.01-4.645 2.079-5.595a4.223 4.223 0 0 1 5.6 2.076l1.229 2.68V11.14a4.223 4.223 0 0 1 8.446 0v10.848m13.905 5.468a4.223 4.223 0 0 0-6.995-2.816m6.995 2.816V37.52m-6.995-12.88a4.224 4.224 0 0 0-6.91-2.651m6.91 2.652v10.893m-6.91-13.545V33.73" stroke="#5C6C8B" stroke-width="2" stroke-linecap="round" stroke-linejoin="round"/></svg>