<svg width="72" height="72" viewBox="0 0 73 72" fill="none" xmlns="http://www.w3.org/2000/svg">
<path d="M28.7285 26.8858L28.7291 26.8836L42.1644 34.9312L50.1703 31.5622C51.7971 30.8589 53.5513 30.4983 55.3236 30.5C55.6189 30.5 55.9107 30.5134 56.2011 30.5328C55.2386 26.7796 53.2067 23.3868 50.3523 20.7667C47.4979 18.1465 43.9439 16.4118 40.1223 15.7734C36.3006 15.135 32.3758 15.6203 28.8247 17.1704C25.2737 18.7205 22.2493 21.2686 20.1191 24.5052C20.1876 24.5043 20.255 24.5 20.3236 24.5C23.2929 24.496 26.2041 25.3224 28.7285 26.8858Z" fill="#0364B8"/>
<path d="M28.7297 26.8837L28.7291 26.8859C26.2048 25.3224 23.2935 24.496 20.3242 24.5C20.2556 24.5 20.1881 24.5043 20.1198 24.5052C17.2136 24.5412 14.3721 25.3684 11.9007 26.898C9.42937 28.4275 7.42152 30.6016 6.09296 33.1866C4.7644 35.7716 4.16536 38.6698 4.3602 41.5697C4.55505 44.4696 5.53642 47.2615 7.19886 49.6456L19.0469 44.6597L24.3137 42.4433L36.0408 37.5084L42.165 34.9312L28.7297 26.8837Z" fill="#0078D4"/>
<path d="M56.2008 30.5328C55.9104 30.5134 55.6185 30.5 55.3232 30.5C53.5509 30.4983 51.7971 30.8603 50.1703 31.5636L42.1641 34.9312L44.4856 36.3218L52.0955 40.88L55.4156 42.8688L66.7683 49.6689C67.7999 47.7539 68.3344 45.6107 68.3231 43.4356C68.3117 41.2605 67.7548 39.123 66.7033 37.2189C65.6518 35.3148 64.1393 33.705 62.3045 32.5369C60.4696 31.3688 58.371 30.6797 56.2008 30.5328Z" fill="#1490DF"/>
<path d="M55.417 42.8688L52.0968 40.88L44.4869 36.3218L42.1654 34.9313L36.0411 37.5084L24.3141 42.4434L19.0472 44.6597L7.19922 49.6456C8.67155 51.7624 10.6343 53.4914 12.9199 54.6851C15.2055 55.8787 17.7461 56.5014 20.3246 56.5H55.3246C57.6713 56.5007 59.9744 55.866 61.9894 54.6633C64.0045 53.4606 65.6563 51.7347 66.7696 49.6689L55.417 42.8688Z" fill="#28A8EA"/>
</svg>
