<svg width="0" height="0" class="hidden">
  <symbol fill="none" xmlns="http://www.w3.org/2000/svg" viewBox="0 0 24 24" id="sort">
    <path
      d="M2.25 7.188a.75.75 0 0 1 .75-.75h18a.75.75 0 0 1 0 1.5H3a.75.75 0 0 1-.75-.75ZM5.25 12.188a.75.75 0 0 1 .75-.75h12a.75.75 0 0 1 0 1.5H6a.75.75 0 0 1-.75-.75ZM10 16.438a.75.75 0 0 0 0 1.5h4a.75.75 0 0 0 0-1.5h-4Z"
      fill="#282829"></path>
  </symbol>
  <symbol fill="none" xmlns="http://www.w3.org/2000/svg" viewBox="0 0 24 24" id="documentation">
    <path
      d="M17.545 19.673c.941-.46 1.19-.881 1.19-1.868V6.286c0-1.288-.595-1.898-1.83-1.898h-.716v-.204c0-.798-.407-1.228-1.13-1.228-.241 0-.528.06-.86.174-2.274.73-4.354 1.22-7.005 1.22H6.62c-.866 0-1.356.497-1.356 1.288v12.928c0 .633.15 1.017.738 1.303 1.296.58 3.225.95 5.229.957 2.184-.008 4.618-.34 6.313-1.153ZM6.68 17.888V6.075c0-.203.106-.324.302-.324h.361c2.547 0 4.972-.527 7.044-1.167.241-.083.392-.015.392.21v11.09c0 .37-.053.527-.407.76-1.507 1.056-4.113 1.68-7.428 1.515-.188-.008-.264-.09-.264-.271Zm8.777-.286c.572-.437.73-.754.73-1.454V5.804h.679c.308 0 .452.158.452.505v11.345c0 .445-.076.633-.505.814-1.462.64-3.616 1.047-5.582 1.055-.739 0-1.454-.023-2.178-.09 2.667-.144 5.153-.89 6.404-1.831ZM8.135 7.687v2.487c0 .113.09.173.181.173 1.74 0 3.526-.31 4.882-.851a.18.18 0 0 0 .105-.166V6.753c0-.173-.158-.21-.24-.18-1.56.58-3.074.85-4.747.919a.192.192 0 0 0-.18.196Z"
      fill="#1C1C1E"></path>
  </symbol>
  <symbol fill="none" xmlns="http://www.w3.org/2000/svg" viewBox="0 0 24 24" id="eiffels-chat">
    <path
      d="M6.094 20.268c.43 0 .806-.18 1.326-.632l2.418-2.155c.557.58 1.394.889 2.44.889h2.577l2.509 2.155c.497.421.851.655 1.258.655.603 0 .957-.43.957-1.085V18.37h.346c1.899 0 3.164-1.16 3.164-3.111v-4.603c0-1.982-1.288-3.172-3.224-3.172h-1.31v-.49c0-2.049-1.259-3.262-3.323-3.262H4.233C2.229 3.732.911 4.945.911 6.994v7.052c0 2.019 1.295 3.217 3.262 3.217h.949v1.928c0 .663.362 1.077.972 1.077Zm.376-3.744c0-.452-.278-.685-.655-.685H4.414c-1.25 0-2.004-.7-2.004-2.004V7.16c0-1.303.76-2.011 2.004-2.011h10.63c1.25 0 2.003.708 2.003 2.011v.324H12.28c-2.004 0-3.225 1.19-3.225 3.172v4.603c0 .316.03.602.09.873L6.47 18.634v-2.11Zm11.768 3.021-2.358-2.14c-.332-.3-.61-.436-1.055-.436h-2.388c-1.183 0-1.898-.656-1.898-1.906v-4.264c0-1.236.715-1.906 1.898-1.906h7.262c1.19 0 1.906.67 1.906 1.906v4.264c0 1.243-.723 1.906-1.906 1.906h-.813c-.37 0-.648.226-.648.678v1.898Z"
      fill="#1C1C1E"></path>
  </symbol>
  <symbol fill="none" xmlns="http://www.w3.org/2000/svg" viewBox="0 0 24 24" id="file-manager">
    <path
      d="M5.838 18.845h12.498c1.454 0 2.297-.844 2.297-2.456V8.637c0-1.612-.85-2.456-2.478-2.456H11.17c-.542 0-.866-.12-1.288-.467l-.422-.347c-.535-.437-.926-.58-1.717-.58H5.612c-1.417 0-2.253.829-2.253 2.418v9.184c0 1.62.851 2.456 2.479 2.456Zm-.98-11.512c0-.685.384-1.047 1.055-1.047h1.431c.535 0 .852.128 1.281.475l.422.354c.527.422.934.572 1.725.572h7.285c.693 0 1.077.362 1.077 1.085v.445H4.858V7.333Zm1.078 10.012c-.694 0-1.078-.361-1.078-1.092v-5.718h14.276v5.726c0 .723-.384 1.084-1.077 1.084H5.936Z"
      fill="#1C1C1E"></path>
  </symbol>
  <symbol fill="none" xmlns="http://www.w3.org/2000/svg" viewBox="0 0 24 24" id="marketplace">
    <path
      d="M7.766 19.267h2.494c.678 0 1.13-.453 1.13-1.033 0-.331-.128-.632-.384-.926-.302-.354-.513-.738-.513-1.175 0-.822.588-1.477 1.507-1.477.92 0 1.507.655 1.507 1.476 0 .438-.204.822-.513 1.176-.256.294-.384.595-.384.926 0 .58.452 1.032 1.13 1.032h2.494c1.537 0 2.388-.828 2.388-2.35v-2.509c0-.12.083-.18.226-.09.437.301.957.505 1.552.505 1.461 0 2.795-1.153 2.795-2.916S21.86 8.983 20.4 8.983c-.595 0-1.115.211-1.552.505-.143.09-.226.038-.226-.09V6.844c0-1.522-.851-2.35-2.388-2.35H13.74c-.678 0-1.13.451-1.13 1.039 0 .324.128.625.384.919.31.354.513.738.513 1.175 0 .814-.595 1.477-1.507 1.477-.904 0-1.507-.663-1.507-1.477 0-.437.211-.82.513-1.175.256-.294.384-.595.384-.92 0-.587-.452-1.039-1.13-1.039H7.766c-1.537 0-2.388.829-2.388 2.35v2.555c0 .128-.083.18-.218.09-.445-.294-.965-.505-1.56-.505-1.461 0-2.795 1.16-2.795 2.923 0 1.763 1.334 2.916 2.795 2.916.595 0 1.115-.204 1.56-.505.135-.09.218-.03.218.09v2.509c0 1.522.851 2.35 2.388 2.35Zm.023-1.432c-.61 0-.98-.346-.98-.98v-3.209c0-.678-.452-1.13-1.032-1.13-.331 0-.632.129-.926.385-.354.301-.739.512-1.175.512-.814 0-1.477-.603-1.477-1.507 0-.911.663-1.506 1.477-1.506.436 0 .82.203 1.175.512.294.248.595.384.926.384.58 0 1.032-.452 1.032-1.13V6.904c0-.625.37-.98.98-.98h1.597c.324 0 .226.159.143.31-.256.436-.444.919-.444 1.469 0 1.461 1.152 2.795 2.915 2.795 1.763 0 2.923-1.334 2.923-2.795 0-.55-.196-1.033-.452-1.47-.083-.15-.18-.308.143-.308h1.597c.61 0 .98.354.98.979v3.262c0 .678.452 1.13 1.04 1.13.323 0 .624-.136.918-.384.354-.309.739-.512 1.175-.512.814 0 1.485.595 1.485 1.506 0 .904-.67 1.507-1.485 1.507-.436 0-.82-.211-1.175-.512-.294-.256-.595-.384-.919-.384-.587 0-1.04.452-1.04 1.13v3.209c0 .633-.369.98-.979.98h-1.597c-.324 0-.226-.16-.143-.31.256-.437.452-.919.452-1.469 0-1.469-1.145-2.795-2.923-2.795-1.77 0-2.915 1.326-2.915 2.795 0 .55.188 1.032.444 1.47.083.15.18.308-.143.308H7.789Z"
      fill="#1C1C1E"></path>
  </symbol>
  <symbol fill="none" xmlns="http://www.w3.org/2000/svg" viewBox="0 0 24 24" id="menu">
    <path fill-rule="evenodd" clip-rule="evenodd"
      d="M2.25 7.188a.75.75 0 0 1 .75-.75h14.774a.75.75 0 0 1 0 1.5H3a.75.75 0 0 1-.75-.75ZM2.25 12.188a.75.75 0 0 1 .75-.75h18a.75.75 0 0 1 0 1.5H3a.75.75 0 0 1-.75-.75ZM2.25 17.188a.75.75 0 0 1 .75-.75h11.276a.75.75 0 0 1 0 1.5H3a.75.75 0 0 1-.75-.75Z"
      fill="#282829"></path>
  </symbol>
  <symbol fill="none" xmlns="http://www.w3.org/2000/svg" viewBox="0 0 24 24" id="sessions">
    <path
      d="M3.804 7.544c0 .52.354.86.881.86H6.47v9.115c0 1.642.822 2.47 2.464 2.47h8.776c1.492 0 2.486-1.024 2.486-2.568v-2.14c0-.512-.354-.859-.873-.859h-.626v-8.15c0-1.628-.843-2.48-2.456-2.48H5.891c-1.236 0-2.087.86-2.087 2.17v1.582Zm1.43-.572v-1.01c0-.46.272-.738.656-.738.392 0 .648.279.648.738v1.01H5.235ZM7.97 17.45V6.06c0-.28-.023-.536-.068-.77h8.204c.73 0 1.092.385 1.092 1.078v8.053h-6.29c-.528 0-.882.347-.882.86v2.169c0 .625-.422 1.04-1.024 1.04-.603 0-1.032-.437-1.032-1.04Zm2.086-9.033h5.063c.271 0 .482-.21.482-.482a.468.468 0 0 0-.482-.467h-5.063c-.286 0-.49.203-.49.467 0 .271.204.482.49.482Zm0 2.57h2.66a.464.464 0 0 0 .482-.468.471.471 0 0 0-.482-.482h-2.66a.473.473 0 0 0-.49.482c0 .264.204.467.49.467Zm1.22 7.503c.167-.317.257-.686.257-1.123v-1.439h7.164v1.416c0 .694-.43 1.146-1.054 1.146h-6.366Z"
      fill="#1C1C1E"></path>
  </symbol>
  <symbol fill="none" xmlns="http://www.w3.org/2000/svg" viewBox="0 0 24 24" id="share-referral">
    <path
      d="M7.887 19.508h8.219c1.424 0 2.215-.769 2.215-2.193V12.81h.045c.655-.188 1.002-.745 1.002-1.574V9.337c0-1.032-.573-1.672-1.597-1.672h-1.296c.407-.407.648-.957.648-1.597 0-1.507-1.198-2.577-2.697-2.577-1.115 0-2.057.626-2.434 1.74-.369-1.114-1.31-1.74-2.425-1.74-1.5 0-2.697 1.07-2.697 2.577 0 .64.24 1.19.648 1.597H6.222c-.987 0-1.597.64-1.597 1.672v1.899c0 .829.346 1.386.994 1.574h.045v4.505c0 1.424.799 2.192 2.223 2.192Zm3.39-11.843h-1.13c-1.153 0-1.816-.633-1.816-1.454 0-.799.558-1.288 1.371-1.288.867 0 1.575.693 1.575 1.755v.987Zm1.439 0v-.987c0-1.062.708-1.755 1.574-1.755.814 0 1.371.49 1.371 1.288 0 .821-.663 1.454-1.815 1.454h-1.13Zm-1.484 3.887h-4.61c-.363 0-.513-.15-.513-.512V9.533c0-.361.15-.512.512-.512h4.61v2.531Zm1.529 0V9.021h4.618c.354 0 .497.15.497.512v1.522c0 .362-.143.497-.497.497H12.76Zm-1.53 6.584H8.084c-.596 0-.927-.331-.927-.919v-4.309h4.076v5.228Zm1.53 0v-5.228h4.076v4.31c0 .587-.332.918-.927.918h-3.15Z"
      fill="#1C1C1E"></path>
  </symbol>
  <symbol fill="none" xmlns="http://www.w3.org/2000/svg" viewBox="0 0 24 24" id="support">
    <path
      d="M11.992 19.68c4.272 0 7.798-3.525 7.798-7.789 0-4.264-3.534-7.79-7.805-7.79-4.264 0-7.782 3.526-7.782 7.79s3.526 7.79 7.79 7.79Zm0-11.751c-.67 0-1.303.165-1.853.467L8.482 6.73a6.19 6.19 0 0 1 3.503-1.07c1.318 0 2.539.4 3.54 1.085l-1.65 1.657a3.99 3.99 0 0 0-1.883-.474ZM5.77 11.89a6.23 6.23 0 0 1 1.054-3.495l1.665 1.657a3.882 3.882 0 0 0-.452 1.838c0 .678.166 1.319.475 1.876l-1.657 1.657a6.224 6.224 0 0 1-1.085-3.533Zm10.193 0a3.91 3.91 0 0 0-.452-1.823l1.657-1.657a6.206 6.206 0 0 1 1.062 3.48c0 1.311-.4 2.524-1.077 3.526l-1.665-1.665a3.88 3.88 0 0 0 .475-1.86ZM12 14.491a2.595 2.595 0 0 1-2.599-2.6c0-1.439 1.16-2.599 2.599-2.599 1.439 0 2.6 1.16 2.6 2.6A2.595 2.595 0 0 1 12 14.49Zm-.008 3.638a6.259 6.259 0 0 1-3.48-1.055l1.665-1.665c.55.28 1.168.445 1.823.445s1.28-.166 1.83-.452l1.665 1.657a6.208 6.208 0 0 1-3.502 1.07Z"
      fill="#1C1C1E"></path>
  </symbol>
  <symbol fill="none" xmlns="http://www.w3.org/2000/svg" viewBox="0 0 24 24" id="download">
    <path
      d="M7.013 17.021c-.46 0-.791.347-.791.814 0 .467.331.814.79.814h9.953c.467 0 .806-.347.806-.814 0-.467-.34-.814-.806-.814h-4.792a.805.805 0 0 0 .437-.248l4.814-4.769c.18-.18.271-.384.271-.602 0-.468-.339-.807-.79-.807a.843.843 0 0 0-.596.249l-1.552 1.522-2.011 2.207.075-1.582V5.977c0-.497-.339-.836-.821-.836-.49 0-.829.34-.829.836v7.014l.076 1.59-2.012-2.215-1.544-1.522a.825.825 0 0 0-.595-.249c-.46 0-.791.34-.791.806a.83.83 0 0 0 .263.603l4.814 4.769c.12.128.271.218.437.248H7.013Z"
      fill="#1C1C1E"></path>
  </symbol>
  <symbol fill="none" xmlns="http://www.w3.org/2000/svg" viewBox="0 0 24 24" id="edit">
    <path
      d="M5.032 16.29h.986c.226 0 .317-.044.483-.172l.504-.385c.279.279.693.34 1.108.159l2.493-1.04a1.07 1.07 0 0 0 .407-.271l7.278-7.225c.723-.723.723-1.59-.008-2.328l-1.635-1.642c-.73-.73-1.597-.738-2.32-.015L7.05 10.588a1.116 1.116 0 0 0-.28.414l-1.054 2.486c-.173.4-.128.791.15 1.1l-1.084 1.123c-.234.248-.12.58.249.58ZM15.164 4.366c.196-.188.43-.196.61-.007l1.537 1.544c.188.188.18.414-.023.61l-.49.49-2.131-2.14.497-.497Zm-6.78 6.743 5.47-5.432 2.124 2.14-5.462 5.431-2.132-2.14Zm-.422 3.45c-.143.053-.241.053-.37-.075l-.474-.467c-.12-.12-.12-.234-.067-.362l.678-1.575 1.808 1.824-1.575.655Zm-3.187 4.407h14.457a.669.669 0 0 0 .656-.67.662.662 0 0 0-.656-.663H4.775a.664.664 0 0 0-.663.663c0 .361.302.67.663.67Z"
      fill="#1C1C1E"></path>
  </symbol>
  <symbol fill="none" xmlns="http://www.w3.org/2000/svg" viewBox="0 0 24 24" id="eiffels">
    <path clip-rule="evenodd"
      d="M12 3.64c0 6.108 2.948 10.747 7.79 13.737 0 0-3.786-2.625-7.79-2.625s-7.79 2.625-7.79 2.625C9.052 14.387 12 9.748 12 3.64Z"
      stroke="#282829" stroke-width="1.5" stroke-linecap="round" stroke-linejoin="round"></path>
    <path d="M5.913 20.735c1.519-1.495 3.684-2.43 6.09-2.43 2.404 0 4.565.932 6.084 2.425" stroke="#282829"
      stroke-width="1.5" stroke-linecap="round" stroke-linejoin="round"></path>
  </symbol>
</svg>
