<svg width="0" height="0" class="hidden">
  <symbol fill="none" xmlns="http://www.w3.org/2000/svg" viewBox="0 0 24 24" id="sidenav_documentation">
    <path
      d="M17.545 19.673c.941-.46 1.19-.881 1.19-1.868V6.286c0-1.288-.595-1.898-1.83-1.898h-.716v-.204c0-.798-.407-1.228-1.13-1.228-.241 0-.528.06-.86.174-2.274.73-4.354 1.22-7.005 1.22H6.62c-.866 0-1.356.497-1.356 1.288v12.928c0 .633.15 1.017.738 1.303 1.296.58 3.225.95 5.229.957 2.184-.008 4.618-.34 6.313-1.153ZM6.68 17.888V6.075c0-.203.106-.324.302-.324h.361c2.547 0 4.972-.527 7.044-1.167.241-.083.392-.015.392.21v11.09c0 .37-.053.527-.407.76-1.507 1.056-4.113 1.68-7.428 1.515-.188-.008-.264-.09-.264-.271Zm8.777-.286c.572-.437.73-.754.73-1.454V5.804h.679c.308 0 .452.158.452.505v11.345c0 .445-.076.633-.505.814-1.462.64-3.616 1.047-5.582 1.055-.739 0-1.454-.023-2.178-.09 2.667-.144 5.153-.89 6.404-1.831ZM8.135 7.687v2.487c0 .113.09.173.181.173 1.74 0 3.526-.31 4.882-.851a.18.18 0 0 0 .105-.166V6.753c0-.173-.158-.21-.24-.18-1.56.58-3.074.85-4.747.919a.192.192 0 0 0-.18.196Z"
      fill="#282829"></path>
  </symbol>
  <symbol fill="none" xmlns="http://www.w3.org/2000/svg" viewBox="0 0 24 24" id="sidenav_eiffels-chat">
    <path
      d="M6.094 20.268c.43 0 .806-.18 1.326-.632l2.418-2.155c.557.58 1.394.889 2.44.889h2.577l2.509 2.155c.497.421.851.655 1.258.655.603 0 .957-.43.957-1.085V18.37h.346c1.899 0 3.164-1.16 3.164-3.111v-4.603c0-1.982-1.288-3.172-3.224-3.172h-1.31v-.49c0-2.049-1.259-3.262-3.323-3.262H4.233C2.229 3.732.911 4.945.911 6.994v7.052c0 2.019 1.295 3.217 3.262 3.217h.949v1.928c0 .663.362 1.077.972 1.077Zm.376-3.744c0-.452-.278-.685-.655-.685H4.414c-1.25 0-2.004-.7-2.004-2.004V7.16c0-1.303.76-2.011 2.004-2.011h10.63c1.25 0 2.003.708 2.003 2.011v.324H12.28c-2.004 0-3.225 1.19-3.225 3.172v4.603c0 .316.03.602.09.873L6.47 18.634v-2.11Zm11.768 3.021-2.358-2.14c-.332-.3-.61-.436-1.055-.436h-2.388c-1.183 0-1.898-.656-1.898-1.906v-4.264c0-1.236.715-1.906 1.898-1.906h7.262c1.19 0 1.906.67 1.906 1.906v4.264c0 1.243-.723 1.906-1.906 1.906h-.813c-.37 0-.648.226-.648.678v1.898Z"
      fill="#282829"></path>
  </symbol>
  <symbol fill="none" xmlns="http://www.w3.org/2000/svg" viewBox="0 0 24 24" id="sidenav_file-manager">
    <path
      d="M5.838 18.845h12.498c1.454 0 2.297-.844 2.297-2.456V8.637c0-1.612-.85-2.456-2.478-2.456H11.17c-.542 0-.866-.12-1.288-.467l-.422-.347c-.535-.437-.926-.58-1.717-.58H5.612c-1.417 0-2.253.829-2.253 2.418v9.184c0 1.62.851 2.456 2.479 2.456Zm-.98-11.512c0-.685.384-1.047 1.055-1.047h1.431c.535 0 .852.128 1.281.475l.422.354c.527.422.934.572 1.725.572h7.285c.693 0 1.077.362 1.077 1.085v.445H4.858V7.333Zm1.078 10.012c-.694 0-1.078-.361-1.078-1.092v-5.718h14.276v5.726c0 .723-.384 1.084-1.077 1.084H5.936Z"
      fill="#282829"></path>
  </symbol>
  <symbol xmlns="http://www.w3.org/2000/svg" viewBox="0 0 24 24" id="sidenav_marketplace">
    <path
      d="M7.766 19.267h2.494c.678 0 1.13-.453 1.13-1.033 0-.331-.128-.632-.384-.926-.302-.354-.513-.738-.513-1.175 0-.822.588-1.477 1.507-1.477.92 0 1.507.655 1.507 1.476 0 .438-.204.822-.513 1.176-.256.294-.384.595-.384.926 0 .58.452 1.032 1.13 1.032h2.494c1.537 0 2.388-.828 2.388-2.35v-2.509c0-.12.083-.18.226-.09.437.301.957.505 1.552.505 1.461 0 2.795-1.153 2.795-2.916S21.86 8.983 20.4 8.983c-.595 0-1.115.211-1.552.505-.143.09-.226.038-.226-.09V6.844c0-1.522-.851-2.35-2.388-2.35H13.74c-.678 0-1.13.451-1.13 1.039 0 .324.128.625.384.919.31.354.513.738.513 1.175 0 .814-.595 1.477-1.507 1.477-.904 0-1.507-.663-1.507-1.477 0-.437.211-.82.513-1.175.256-.294.384-.595.384-.92 0-.587-.452-1.039-1.13-1.039H7.766c-1.537 0-2.388.829-2.388 2.35v2.555c0 .128-.083.18-.218.09-.445-.294-.965-.505-1.56-.505-1.461 0-2.795 1.16-2.795 2.923 0 1.763 1.334 2.916 2.795 2.916.595 0 1.115-.204 1.56-.505.135-.09.218-.03.218.09v2.509c0 1.522.851 2.35 2.388 2.35Zm.023-1.432c-.61 0-.98-.346-.98-.98v-3.209c0-.678-.452-1.13-1.032-1.13-.331 0-.632.129-.926.385-.354.301-.739.512-1.175.512-.814 0-1.477-.603-1.477-1.507 0-.911.663-1.506 1.477-1.506.436 0 .82.203 1.175.512.294.248.595.384.926.384.58 0 1.032-.452 1.032-1.13V6.904c0-.625.37-.98.98-.98h1.597c.324 0 .226.159.143.31-.256.436-.444.919-.444 1.469 0 1.461 1.152 2.795 2.915 2.795 1.763 0 2.923-1.334 2.923-2.795 0-.55-.196-1.033-.452-1.47-.083-.15-.18-.308.143-.308h1.597c.61 0 .98.354.98.979v3.262c0 .678.452 1.13 1.04 1.13.323 0 .624-.136.918-.384.354-.309.739-.512 1.175-.512.814 0 1.485.595 1.485 1.506 0 .904-.67 1.507-1.485 1.507-.436 0-.82-.211-1.175-.512-.294-.256-.595-.384-.919-.384-.587 0-1.04.452-1.04 1.13v3.209c0 .633-.369.98-.979.98h-1.597c-.324 0-.226-.16-.143-.31.256-.437.452-.919.452-1.469 0-1.469-1.145-2.795-2.923-2.795-1.77 0-2.915 1.326-2.915 2.795 0 .55.188 1.032.444 1.47.083.15.18.308-.143.308H7.789Z">
    </path>
  </symbol>
  <symbol fill="none" xmlns="http://www.w3.org/2000/svg" viewBox="0 0 24 24" id="sidenav_sessions">
    <path
      d="M3.804 7.544c0 .52.354.86.881.86H6.47v9.115c0 1.642.822 2.47 2.464 2.47h8.776c1.492 0 2.486-1.024 2.486-2.568v-2.14c0-.512-.354-.859-.873-.859h-.626v-8.15c0-1.628-.843-2.48-2.456-2.48H5.891c-1.236 0-2.087.86-2.087 2.17v1.582Zm1.43-.572v-1.01c0-.46.272-.738.656-.738.392 0 .648.279.648.738v1.01H5.235ZM7.97 17.45V6.06c0-.28-.023-.536-.068-.77h8.204c.73 0 1.092.385 1.092 1.078v8.053h-6.29c-.528 0-.882.347-.882.86v2.169c0 .625-.422 1.04-1.024 1.04-.603 0-1.032-.437-1.032-1.04Zm2.086-9.033h5.063c.271 0 .482-.21.482-.482a.468.468 0 0 0-.482-.467h-5.063c-.286 0-.49.203-.49.467 0 .271.204.482.49.482Zm0 2.57h2.66a.464.464 0 0 0 .482-.468.471.471 0 0 0-.482-.482h-2.66a.473.473 0 0 0-.49.482c0 .264.204.467.49.467Zm1.22 7.503c.167-.317.257-.686.257-1.123v-1.439h7.164v1.416c0 .694-.43 1.146-1.054 1.146h-6.366Z"
      fill="#282829"></path>
  </symbol>
  <symbol fill="none" xmlns="http://www.w3.org/2000/svg" viewBox="0 0 24 24" id="sidenav_share-referral">
    <path
      d="M7.887 19.508h8.219c1.424 0 2.215-.769 2.215-2.193V12.81h.045c.655-.188 1.002-.745 1.002-1.574V9.337c0-1.032-.573-1.672-1.597-1.672h-1.296c.407-.407.648-.957.648-1.597 0-1.507-1.198-2.577-2.697-2.577-1.115 0-2.057.626-2.434 1.74-.369-1.114-1.31-1.74-2.425-1.74-1.5 0-2.697 1.07-2.697 2.577 0 .64.24 1.19.648 1.597H6.222c-.987 0-1.597.64-1.597 1.672v1.899c0 .829.346 1.386.994 1.574h.045v4.505c0 1.424.799 2.192 2.223 2.192Zm3.39-11.843h-1.13c-1.153 0-1.816-.633-1.816-1.454 0-.799.558-1.288 1.371-1.288.867 0 1.575.693 1.575 1.755v.987Zm1.439 0v-.987c0-1.062.708-1.755 1.574-1.755.814 0 1.371.49 1.371 1.288 0 .821-.663 1.454-1.815 1.454h-1.13Zm-1.484 3.887h-4.61c-.363 0-.513-.15-.513-.512V9.533c0-.361.15-.512.512-.512h4.61v2.531Zm1.529 0V9.021h4.618c.354 0 .497.15.497.512v1.522c0 .362-.143.497-.497.497H12.76Zm-1.53 6.584H8.084c-.596 0-.927-.331-.927-.919v-4.309h4.076v5.228Zm1.53 0v-5.228h4.076v4.31c0 .587-.332.918-.927.918h-3.15Z"
      fill="#282829"></path>
  </symbol>
  <symbol fill="none" xmlns="http://www.w3.org/2000/svg" viewBox="0 0 24 24" id="sidenav_support">
    <path
      d="M11.992 19.68c4.272 0 7.798-3.525 7.798-7.789 0-4.264-3.534-7.79-7.805-7.79-4.264 0-7.782 3.526-7.782 7.79s3.526 7.79 7.79 7.79Zm0-11.751c-.67 0-1.303.165-1.853.467L8.482 6.73a6.19 6.19 0 0 1 3.503-1.07c1.318 0 2.539.4 3.54 1.085l-1.65 1.657a3.99 3.99 0 0 0-1.883-.474ZM5.77 11.89a6.23 6.23 0 0 1 1.054-3.495l1.665 1.657a3.882 3.882 0 0 0-.452 1.838c0 .678.166 1.319.475 1.876l-1.657 1.657a6.224 6.224 0 0 1-1.085-3.533Zm10.193 0a3.91 3.91 0 0 0-.452-1.823l1.657-1.657a6.206 6.206 0 0 1 1.062 3.48c0 1.311-.4 2.524-1.077 3.526l-1.665-1.665a3.88 3.88 0 0 0 .475-1.86ZM12 14.491a2.595 2.595 0 0 1-2.599-2.6c0-1.439 1.16-2.599 2.599-2.599 1.439 0 2.6 1.16 2.6 2.6A2.595 2.595 0 0 1 12 14.49Zm-.008 3.638a6.259 6.259 0 0 1-3.48-1.055l1.665-1.665c.55.28 1.168.445 1.823.445s1.28-.166 1.83-.452l1.665 1.657a6.208 6.208 0 0 1-3.502 1.07Z"
      fill="#282829"></path>
  </symbol>
  <symbol fill="none" xmlns="http://www.w3.org/2000/svg" viewBox="0 0 24 24" id="sort">
    <path
      d="M2.25 7.188a.75.75 0 0 1 .75-.75h18a.75.75 0 0 1 0 1.5H3a.75.75 0 0 1-.75-.75ZM5.25 12.188a.75.75 0 0 1 .75-.75h12a.75.75 0 0 1 0 1.5H6a.75.75 0 0 1-.75-.75ZM10 16.438a.75.75 0 0 0 0 1.5h4a.75.75 0 0 0 0-1.5h-4Z"
      fill="#282829"></path>
  </symbol>
  <symbol fill="none" xmlns="http://www.w3.org/2000/svg" viewBox="0 0 24 24" id="download">
    <path
      d="M17.846 19.063c0-.467-.339-.821-.806-.821h-4.965a.892.892 0 0 0 .55-.271l4.957-4.965a.835.835 0 0 0 .264-.61.79.79 0 0 0-.806-.814.842.842 0 0 0-.595.249l-1.718 1.695-1.951 2.185.06-1.628V4.78c0-.505-.339-.852-.836-.852-.497 0-.836.347-.836.852v9.303l.06 1.62-1.951-2.177-1.718-1.695a.847.847 0 0 0-.602-.249c-.46 0-.799.347-.799.814 0 .226.083.43.264.61l4.957 4.965c.15.158.346.248.55.27h-4.95a.8.8 0 0 0-.821.822.8.8 0 0 0 .821.821H17.04c.467 0 .806-.354.806-.82Z"
      fill="#282829"></path>
  </symbol>
  <symbol fill="none" xmlns="http://www.w3.org/2000/svg" viewBox="0 0 24 24" id="edit">
    <path
      d="M5.032 16.29h.986c.226 0 .317-.044.483-.172l.504-.385c.279.279.693.34 1.108.159l2.493-1.04a1.07 1.07 0 0 0 .407-.271l7.278-7.225c.723-.723.723-1.59-.008-2.328l-1.635-1.642c-.73-.73-1.597-.738-2.32-.015L7.05 10.588a1.116 1.116 0 0 0-.28.414l-1.054 2.486c-.173.4-.128.791.15 1.1l-1.084 1.123c-.234.248-.12.58.249.58ZM15.164 4.366c.196-.188.43-.196.61-.007l1.537 1.544c.188.188.18.414-.023.61l-.49.49-2.131-2.14.497-.497Zm-6.78 6.743 5.47-5.432 2.124 2.14-5.462 5.431-2.132-2.14Zm-.422 3.45c-.143.053-.241.053-.37-.075l-.474-.467c-.12-.12-.12-.234-.067-.362l.678-1.575 1.808 1.824-1.575.655Zm-3.187 4.407h14.457a.669.669 0 0 0 .656-.67.662.662 0 0 0-.656-.663H4.775a.664.664 0 0 0-.663.663c0 .361.302.67.663.67Z"
      fill="#282829"></path>
  </symbol>
  <symbol fill="none" xmlns="http://www.w3.org/2000/svg" viewBox="0 0 24 24" id="eiffels">
    <path clip-rule="evenodd"
      d="M12 3.64c0 6.108 2.948 10.747 7.79 13.737 0 0-3.786-2.625-7.79-2.625s-7.79 2.625-7.79 2.625C9.052 14.387 12 9.748 12 3.64Z"
      stroke="#282829" stroke-width="1.5" stroke-linecap="round" stroke-linejoin="round"></path>
    <path d="M5.913 20.735c1.519-1.495 3.684-2.43 6.09-2.43 2.404 0 4.565.932 6.084 2.425" stroke="#282829"
      stroke-width="1.5" stroke-linecap="round" stroke-linejoin="round"></path>
  </symbol>
  <symbol xmlns="http://www.w3.org/2000/svg" viewBox="0 0 24 24" id="trash">
    <path
      d="M8.54214 19.7034H15.4654C16.6256 19.7034 17.3714 19.0028 17.4316 17.8426L17.9364 6.99442H18.7651C19.1493 6.99442 19.4431 6.69308 19.4431 6.31641C19.4431 5.93973 19.1417 5.65346 18.7651 5.65346H15.4202V4.52344C15.4202 3.36328 14.6819 2.68527 13.4238 2.68527H10.5611C9.30302 2.68527 8.56474 3.36328 8.56474 4.52344V5.65346H5.23494C4.85826 5.65346 4.55692 5.94727 4.55692 6.31641C4.55692 6.70061 4.85826 6.99442 5.23494 6.99442H6.06362L6.56836 17.8426C6.62863 19.0103 7.36691 19.7034 8.54214 19.7034ZM9.9735 4.59124C9.9735 4.20703 10.2447 3.95843 10.659 3.95843H13.3259C13.7402 3.95843 14.0114 4.20703 14.0114 4.59124V5.65346H9.9735V4.59124ZM8.6928 18.3549C8.27846 18.3549 7.97712 18.046 7.95452 17.6016L7.44978 6.99442H16.5276L16.0379 17.6016C16.0229 18.0536 15.7291 18.3549 15.2997 18.3549H8.6928ZM9.77763 17.142C10.1016 17.142 10.305 16.9386 10.2974 16.6373L10.0714 8.75726C10.0639 8.45592 9.85296 8.26005 9.54409 8.26005C9.22768 8.26005 9.02428 8.46345 9.03181 8.76479L9.25782 16.6448C9.26535 16.9462 9.47629 17.142 9.77763 17.142ZM12 17.142C12.3164 17.142 12.5349 16.9462 12.5349 16.6448V8.76479C12.5349 8.46345 12.3164 8.26005 12 8.26005C11.6836 8.26005 11.4727 8.46345 11.4727 8.76479V16.6448C11.4727 16.9462 11.6836 17.142 12 17.142ZM14.2224 17.1496C14.5237 17.1496 14.7347 16.9462 14.7422 16.6448L14.9682 8.76479C14.9757 8.46345 14.7723 8.26758 14.4559 8.26758C14.147 8.26758 13.9361 8.46345 13.9286 8.76479L13.7026 16.6448C13.695 16.9386 13.8984 17.1496 14.2224 17.1496Z"></path>
  </symbol>
  <symbol xmlns="http://www.w3.org/2000/svg" viewBox="0 0 24 24" id="search">
    <path
      d="M10.742 16.502c1.198 0 2.32-.362 3.254-.98l3.3 3.307c.219.212.497.317.799.317.625 0 1.084-.49 1.084-1.108a1.08 1.08 0 0 0-.308-.775l-3.277-3.293a5.88 5.88 0 0 0 1.077-3.397c0-3.262-2.667-5.929-5.93-5.929-3.254 0-5.928 2.667-5.928 5.929 0 3.262 2.667 5.929 5.929 5.929Zm0-1.582a4.363 4.363 0 0 1-4.347-4.347 4.363 4.363 0 0 1 4.347-4.347 4.363 4.363 0 0 1 4.347 4.347 4.363 4.363 0 0 1-4.347 4.347Z">
    </path>
  </symbol>
  <symbol  xmlns="http://www.w3.org/2000/svg" viewBox="0 0 24 24" id="time">
    <path
      d="M11.992 19.493c4.272 0 7.798-3.525 7.798-7.79 0-4.263-3.534-7.789-7.805-7.789-4.264 0-7.782 3.526-7.782 7.79s3.526 7.79 7.79 7.79Zm0-1.552a6.208 6.208 0 0 1-6.222-6.237 6.2 6.2 0 0 1 6.215-6.23 6.226 6.226 0 0 1 6.245 6.23 6.217 6.217 0 0 1-6.238 6.237Zm-3.796-5.288h3.789c.347 0 .61-.264.61-.603V7.123a.597.597 0 0 0-.61-.602.593.593 0 0 0-.595.602v4.324H8.196a.595.595 0 0 0-.603.603c0 .34.264.603.603.603Z"></path>
  </symbol>
  <!-- <symbol fill="none" xmlns="http://www.w3.org/2000/svg" viewBox="0 0 24 24" id="send">
    <path
      d="M13.145 20.126c.588 0 .995-.475 1.273-1.198L19.39 5.925c.128-.339.204-.632.204-.888 0-.535-.34-.874-.882-.874-.248 0-.55.067-.881.196L4.768 9.36c-.648.248-1.138.655-1.138 1.243 0 .723.535.994 1.273 1.213l5.44 1.597 1.582 5.379c.226.768.497 1.333 1.22 1.333Zm-2.365-8.098L6.1 10.596c-.113-.03-.143-.068-.143-.113 0-.053.03-.098.128-.128l8.942-3.42c.64-.249 1.266-.55 1.952-.866-.543.437-1.206.971-1.658 1.423l-4.542 4.536Zm2.5 5.778c-.052 0-.09-.045-.12-.15l-1.431-4.68 4.535-4.542c.437-.444.994-1.13 1.431-1.68-.316.693-.625 1.326-.874 1.974l-3.42 8.942c-.037.098-.068.136-.12.136Z"
      fill="#282829"></path>
  </symbol> -->
  <symbol xmlns="http://www.w3.org/2000/svg" viewBox="0 0 24 24" id="settings">
    <path
      d="M11.2316 20.0801H12.7609C13.3861 20.0801 13.8758 19.6883 14.0265 19.0857L14.3278 17.7673L14.5237 17.692L15.6763 18.4076C16.2037 18.7391 16.829 18.6487 17.2734 18.2042L18.3281 17.1496C18.7801 16.6975 18.8555 16.0798 18.524 15.56L17.8083 14.4074L17.8836 14.2266L19.202 13.9177C19.7971 13.767 20.1889 13.2773 20.1889 12.6521V11.168C20.1889 10.5427 19.8047 10.053 19.202 9.90235L17.8912 9.58594L17.8158 9.39007L18.5315 8.24498C18.863 7.72517 18.7877 7.10742 18.3356 6.64788L17.281 5.59319C16.844 5.14872 16.2187 5.06585 15.6914 5.38979L14.5388 6.09794L14.3278 6.0226L14.0265 4.69671C13.8758 4.09403 13.3861 3.70982 12.7609 3.70982H11.2316C10.5988 3.70982 10.1091 4.09403 9.96595 4.69671L9.66461 6.0226L9.45367 6.09794L8.30105 5.38979C7.76617 5.06585 7.14842 5.14872 6.71148 5.59319L5.64926 6.64788C5.20479 7.10742 5.12192 7.72517 5.45339 8.24498L6.16907 9.39007L6.09374 9.58594L4.79044 9.90235C4.18777 10.053 3.80356 10.5427 3.80356 11.168V12.6521C3.80356 13.2773 4.1953 13.767 4.79044 13.9177L6.1088 14.2266L6.17661 14.4074L5.46092 15.56C5.12945 16.0798 5.21232 16.6975 5.6568 17.1496L6.71902 18.2042C7.15596 18.6487 7.78124 18.7391 8.30858 18.4076L9.4612 17.692L9.66461 17.7673L9.96595 19.0857C10.1091 19.6883 10.5988 20.0801 11.2316 20.0801ZM11.4274 18.6939C11.2994 18.6939 11.2316 18.6412 11.2165 18.5282L10.7645 16.6749C10.2899 16.5619 9.83034 16.3661 9.4612 16.1325L7.83397 17.1345C7.73604 17.1948 7.64563 17.1872 7.55523 17.0968L6.76422 16.3058C6.67382 16.2229 6.67382 16.1325 6.73408 16.0346L7.73604 14.4074C7.5251 14.0458 7.32923 13.5938 7.21623 13.1191L5.35546 12.6747C5.24245 12.6596 5.18219 12.5918 5.18219 12.4637V11.3488C5.18219 11.2132 5.23492 11.1604 5.35546 11.1303L7.20869 10.6934C7.32169 10.1886 7.54017 9.72154 7.7285 9.38254L6.72655 7.77037C6.66628 7.6649 6.66628 7.5745 6.74915 7.4841L7.5477 6.70062C7.6381 6.61775 7.72097 6.60268 7.83397 6.67048L9.44614 7.65737C9.78514 7.44643 10.2899 7.23549 10.772 7.11496L11.2165 5.26172C11.2316 5.14872 11.2994 5.08845 11.4274 5.08845H12.565C12.6931 5.08845 12.7533 5.14119 12.7759 5.26172L13.2279 7.12249C13.7176 7.24303 14.1621 7.44643 14.5388 7.65737L16.1509 6.67048C16.2639 6.61021 16.3468 6.61775 16.4372 6.70815L17.2358 7.49163C17.3262 7.5745 17.3262 7.6649 17.2584 7.77037L16.2639 9.38254C16.4447 9.72154 16.6707 10.1886 16.7837 10.6934L18.637 11.1303C18.7575 11.1604 18.8027 11.2132 18.8027 11.3488V12.4637C18.8027 12.5918 18.75 12.6596 18.637 12.6747L16.7762 13.1191C16.6632 13.5938 16.4598 14.0533 16.2489 14.4074L17.2508 16.0271C17.3111 16.1325 17.3111 16.2154 17.2207 16.2983L16.4297 17.0968C16.3393 17.1872 16.2489 17.1948 16.1509 17.1345L14.5312 16.1325C14.1546 16.3661 13.7252 16.5544 13.2279 16.6749L12.7759 18.5282C12.7533 18.6412 12.6931 18.6939 12.565 18.6939H11.4274ZM12 14.7539C13.567 14.7539 14.8552 13.4657 14.8552 11.8912C14.8552 10.3318 13.567 9.04353 12 9.04353C10.4255 9.04353 9.12973 10.3318 9.12973 11.8912C9.12973 13.4657 10.4255 14.7539 12 14.7539ZM12 13.4506C11.1412 13.4506 10.4406 12.75 10.4406 11.8912C10.4406 11.0474 11.1487 10.3468 12 10.3468C12.8362 10.3468 13.5368 11.0474 13.5368 11.8912C13.5368 12.7425 12.8362 13.4506 12 13.4506Z"></path>
  </symbol>
  <symbol xmlns="http://www.w3.org/2000/svg" viewBox="0 0 24 24" id="more">
    <circle cx="5.827" cy="12.188" r="1.455"></circle>
    <circle cx="12" cy="12.188" r="1.455"></circle>
    <circle cx="18.173" cy="12.188" r="1.455"></circle>
  </symbol>
  <!-- <symbol fill="none" xmlns="http://www.w3.org/2000/svg" viewBox="0 0 24 24" id="signout">
    <path fill-rule="evenodd" clip-rule="evenodd"
      d="M4.86279 5.09567C4.86279 4.68146 5.19858 4.34567 5.61279 4.34567H11.0871C11.5013 4.34567 11.8371 4.68146 11.8371 5.09567C11.8371 5.50989 11.5013 5.84567 11.0871 5.84567H6.36279V18.1543H11.0871C11.5013 18.1543 11.8371 18.4901 11.8371 18.9043C11.8371 19.3186 11.5013 19.6543 11.0871 19.6543H5.61279C5.19858 19.6543 4.86279 19.3186 4.86279 18.9043V5.09567Z"
      fill="#282829"></path>
    <path fill-rule="evenodd" clip-rule="evenodd"
      d="M14.1003 7.72876C14.3932 7.43587 14.868 7.43587 15.1609 7.72876L18.9172 11.4851C19.2101 11.778 19.2101 12.2528 18.9172 12.5457L15.1609 16.302C14.868 16.5949 14.3932 16.5949 14.1003 16.302C13.8074 16.0091 13.8074 15.5343 14.1003 15.2414L16.5762 12.7654H9.62646C9.21225 12.7654 8.87646 12.4296 8.87646 12.0154C8.87646 11.6012 9.21225 11.2654 9.62646 11.2654H16.5762L14.1003 8.78942C13.8074 8.49653 13.8074 8.02166 14.1003 7.72876Z"
      fill="#282829"></path>
  </symbol> -->
  <symbol xmlns="http://www.w3.org/2000/svg" viewBox="0 0 24 24" id="onedrive">
    <path
      d="M20.888 13.7A2.495 2.495 0 0 1 23 16.167c0 .976-.55 1.82-1.375 2.227l-.187.088H8.876a2.897 2.897 0 0 1 .022-5.792l.242.01-.011-.22c0-.96.382-1.88 1.063-2.56a3.635 3.635 0 0 1 2.567-1.06c1.408 0 2.629.801 3.234 1.942a3.386 3.386 0 0 1 1.738-.494c.84 0 1.646.333 2.24.926.594.592.928 1.396.928 2.234l-.011.23ZM8.502 12.075a3.543 3.543 0 0 0-2.246 1.156 3.525 3.525 0 0 0-.9 2.354c0 .746.231 1.426.594 1.997H4.003c-.796 0-1.56-.316-2.123-.877a2.99 2.99 0 0 1 1.903-5.102l-.077-.735c0-1.865 1.518-3.357 3.388-3.357.693 0 1.353.198 1.892.549a4.687 4.687 0 0 1 4.191-2.578 4.682 4.682 0 0 1 4.653 4.19h-.099c-.528 0-1.034.11-1.507.307a4.254 4.254 0 0 0-3.465-1.766c-1.064 0-2.09.397-2.877 1.11a4.264 4.264 0 0 0-1.38 2.752Z">
    </path>
  </symbol>
  <symbol xmlns="http://www.w3.org/2000/svg" viewBox="0 0 24 24" id="checkmark-shield">
    <path
      d="M11.962 19.554c.136 0 .34-.046.535-.151 4.332-2.358 5.839-3.45 5.839-6.193V7.523c0-.904-.347-1.228-1.108-1.552-.828-.354-3.646-1.334-4.46-1.612a2.7 2.7 0 0 0-.806-.136c-.256 0-.55.068-.798.136-.814.233-3.631 1.265-4.46 1.612-.76.316-1.107.648-1.107 1.552v5.687c0 2.743 1.506 3.82 5.838 6.193.196.105.4.15.527.15Zm0-1.598c-.105 0-.21-.037-.43-.173-3.434-2.094-4.504-2.66-4.504-4.851V7.764c0-.272.053-.377.264-.467 1.115-.445 3.277-1.16 4.271-1.552.173-.06.294-.083.4-.083.112 0 .233.022.406.083.995.391 3.142 1.152 4.264 1.552.219.082.271.195.271.467v5.168c0 2.207-1.115 2.802-4.505 4.851-.218.136-.324.173-.437.173Zm-.806-2.885a.773.773 0 0 0 .67-.384l3.398-5.289c.106-.158.189-.339.189-.512 0-.377-.332-.625-.693-.625-.226 0-.43.128-.588.384l-2.998 4.784-1.402-1.77c-.18-.234-.361-.317-.58-.317a.669.669 0 0 0-.67.678c0 .18.068.347.196.512l1.778 2.162c.203.257.421.377.7.377Z">
    </path>
  </symbol>
  <symbol xmlns="http://www.w3.org/2000/svg" viewBox="0 0 24 24" id="external-link">
    <path
      d="M20.37 7.592c.376 0 .625-.279.625-.686V3.403c0-.527-.294-.76-.768-.76H16.7c-.407 0-.678.24-.678.617 0 .384.271.625.685.625h1.274l1.017-.12-1.108 1.017-4.637 4.637a.693.693 0 0 0-.21.482c0 .407.278.67.662.67.211 0 .377-.075.513-.21l4.629-4.63 1.01-1.092-.114 1.077v1.198c0 .414.249.678.626.678Z">
    </path>
    <path
      d="M7.435 18.755h9.123c1.634 0 2.478-.844 2.478-2.456v-4.584h-1.499v4.448c0 .731-.392 1.093-1.077 1.093H7.533c-.693 0-1.078-.362-1.078-1.093V7.266c0-.73.385-1.092 1.078-1.092h4.463v-1.5H7.435c-1.628 0-2.479.837-2.479 2.457v9.168c0 1.612.851 2.456 2.479 2.456Z">
    </path>
  </symbol>
  <symbol xmlns="http://www.w3.org/2000/svg" viewBox="0 0 24 24" id="link">
    <path
      d="M11.6459 14.8301L12.7986 13.6624C11.9096 13.5871 11.2693 13.2932 10.8097 12.8337C9.53655 11.5605 9.53655 9.76004 10.8022 8.50195L13.3033 5.9933C14.5765 4.72768 16.3694 4.72015 17.6426 5.9933C18.9233 7.274 18.9082 9.06696 17.6501 10.3326L16.3694 11.6057C16.6105 12.1632 16.6934 12.8412 16.5578 13.4289L18.7123 11.2818C20.5656 9.43611 20.5731 6.79939 18.7048 4.93108C16.829 3.05525 14.2073 3.07031 12.3541 4.92355L9.73242 7.5452C7.87919 9.39844 7.87165 12.0276 9.73996 13.8959C10.1769 14.3404 10.7796 14.6719 11.6459 14.8301ZM12.3465 8.46429L11.1939 9.63198C12.0829 9.71484 12.7232 10.0011 13.1828 10.4607C14.4635 11.7338 14.4559 13.5343 13.1903 14.7999L10.6892 17.3011C9.41602 18.5742 7.62305 18.5742 6.35742 17.3011C5.07673 16.0204 5.08427 14.2349 6.34989 12.9693L7.62305 11.6886C7.38198 11.1387 7.30664 10.4607 7.43471 9.86551L5.28014 12.0201C3.4269 13.8658 3.41937 16.495 5.28767 18.3633C7.16351 20.2391 9.78516 20.2241 11.6384 18.3783L14.26 15.7492C16.1133 13.8959 16.1208 11.2667 14.2525 9.39844C13.8156 8.9615 13.2204 8.63002 12.3465 8.46429Z">
    </path>
  </symbol>
  <symbol xmlns="http://www.w3.org/2000/svg" viewBox="0 0 24 24" id="email">
    <path
      d="M6.01 18.52h12.152c1.454 0 2.298-.843 2.298-2.455V7.74c0-1.612-.851-2.456-2.478-2.456H5.83c-1.454 0-2.298.837-2.298 2.456v8.325c0 1.612.852 2.456 2.479 2.456Zm5.139-6.358L5.664 6.738c.106-.022.226-.037.354-.037h11.956c.136 0 .256.015.37.045l-5.478 5.416c-.316.31-.58.445-.858.445-.28 0-.543-.143-.86-.445ZM4.94 7.846l4.098 4.03-4.098 4.053V7.846Zm10.035 4.03 4.075-4.008v8.046l-4.075-4.038Zm-8.958 5.22c-.135 0-.263-.014-.376-.037l4.316-4.279.407.407c.55.535 1.078.76 1.643.76.557 0 1.092-.225 1.634-.76l.415-.407 4.309 4.272c-.12.03-.249.045-.392.045H6.018Z">
    </path>
  </symbol>
  <symbol xmlns="http://www.w3.org/2000/svg" viewBox="0 0 24 24" id="iphone">
    <path
      d="M9.04 19.968h5.95c1.289 0 2.148-.844 2.148-2.094V5.519c0-1.25-.859-2.087-2.147-2.087H9.039c-1.31 0-2.184.836-2.184 2.087v12.355c0 1.25.874 2.094 2.184 2.094Zm.255-1.552c-.595 0-.934-.324-.934-.896V5.873c0-.573.34-.897.934-.897h.31v.377c0 .331.218.55.542.55h3.706c.324 0 .543-.219.543-.55v-.377h.301c.595 0 .934.332.934.904v11.64c0 .572-.339.896-.934.896H9.295Zm.694-.595h4.022c.219 0 .385-.15.385-.384 0-.226-.166-.377-.385-.377H9.99c-.219 0-.385.15-.385.377 0 .233.166.384.385.384Z">
    </path>
  </symbol>
  <symbol xmlns="http://www.w3.org/2000/svg" viewBox="0 0 24 24" id="whatsapp">
    <path
      d="M11.992 19.493c4.272 0 7.798-3.525 7.798-7.79 0-4.263-3.534-7.789-7.805-7.789-4.264 0-7.782 3.526-7.782 7.79 0 1.554.468 3.01 1.27 4.233l-1.09 4.54L9 18.885c.924.39 1.935.607 2.992.607Zm0-1.552a6.224 6.224 0 0 1-2.69-.605l-3.247 1.332.935-3.24a6.237 6.237 0 0 1-1.22-3.724 6.2 6.2 0 0 1 6.215-6.23 6.226 6.226 0 0 1 6.245 6.23 6.217 6.217 0 0 1-6.238 6.237Z">
    </path>
    <path
      d="M15.956 13.85c.41.41.303.932-.101 1.337l-.054.053c-1.38 1.38-3.867.287-5.662-1.508-1.79-1.79-2.882-4.277-1.502-5.657l.053-.053c.405-.405.927-.512 1.337-.101.293.293.629.65 1.039 1.422.24.463.218.783-.155 1.166l-.293.304c-.064.064-.069.133-.016.24.101.208.432.687.98 1.236.554.554 1.034.884 1.242.985.106.053.17.043.234-.021l.304-.293c.389-.368.708-.389 1.172-.15.767.406 1.129.746 1.422 1.04Z">
    </path>
  </symbol>
  <symbol xmlns="http://www.w3.org/2000/svg" viewBox="0 0 24 24" id="send">
    <path
      d="M5.008 18.73c.415.415 1.039.367 1.747.053l12.71-5.678c.33-.15.591-.304.773-.485.378-.378.378-.858-.006-1.241-.175-.176-.436-.341-.761-.485l-12.775-5.7c-.633-.282-1.267-.34-1.683.075-.511.511-.325 1.081.043 1.758l2.717 4.975-2.685 4.922c-.384.703-.592 1.295-.08 1.806Zm4.054-7.4L6.766 7.01c-.059-.1-.054-.149-.022-.18.038-.038.091-.048.182 0l8.741 3.904c.629.277 1.284.506 1.992.767-.692-.074-1.54-.165-2.178-.165l-6.42-.005Zm-2.318 5.855c-.037-.037-.032-.096.022-.192l2.296-4.32 6.419-.005c.623-.005 1.502-.096 2.2-.176-.714.266-1.38.495-2.014.778l-8.741 3.904c-.096.043-.144.048-.182.011Z">
    </path>
  </symbol>
  <symbol xmlns="http://www.w3.org/2000/svg" viewBox="0 0 24 24" id="arrow-right">
    <path
      d="M19.127 11.689a.864.864 0 0 0-.271-.618l-4.973-4.965a.836.836 0 0 0-.595-.256c-.474 0-.82.34-.82.799a.8.8 0 0 0 .248.595L14.41 8.96l2.184 1.997-1.755-.106H5.71c-.498 0-.844.347-.844.837 0 .497.346.843.844.843h9.13l1.748-.105-2.177 1.996-1.695 1.718a.8.8 0 0 0-.249.595c0 .46.347.799.821.799.219 0 .422-.083.618-.272l4.95-4.95a.868.868 0 0 0 .27-.624Z">
    </path>
  </symbol>
  <symbol xmlns="http://www.w3.org/2000/svg" viewBox="0 0 24 24" id="arrow-left">
    <path
      d="M4.866 11.696c0 .226.098.452.271.618l4.972 4.965c.18.173.377.256.595.256.475 0 .821-.34.821-.799a.8.8 0 0 0-.248-.595l-1.695-1.718-2.185-1.996 1.755.105h9.13c.498 0 .845-.346.845-.836 0-.497-.347-.844-.844-.844h-9.13l-1.748.106L9.582 8.96l1.695-1.717a.8.8 0 0 0 .248-.595c0-.46-.346-.799-.82-.799-.22 0-.423.083-.619.271l-4.949 4.95a.867.867 0 0 0-.271.625Z">
    </path>
  </symbol>
  <symbol xmlns="http://www.w3.org/2000/svg" viewBox="0 0 24 24" id="chevron-left">
    <path
      d="M7.156 11.704c0 .263.098.49.309.685l5.86 5.74a.858.858 0 0 0 .626.257.89.89 0 0 0 .897-.897.92.92 0 0 0-.272-.64l-5.28-5.145 5.28-5.146a.934.934 0 0 0 .272-.64.89.89 0 0 0-.897-.897c-.248 0-.46.09-.625.257L7.465 11.01a.924.924 0 0 0-.309.693Z">
    </path>
  </symbol>
  <symbol xmlns="http://www.w3.org/2000/svg" viewBox="0 0 24 24" id="chevron-right">
    <path d="M16.844 11.704a.98.98 0 0 0-.309-.693l-5.86-5.733a.87.87 0 0 0-.626-.257.884.884 0 0 0-.897.897c0 .241.098.467.272.64l5.273 5.146-5.273 5.145a.888.888 0 0 0-.272.64c0 .505.392.897.897.897.24 0 .452-.09.625-.256l5.861-5.74a.897.897 0 0 0 .309-.686Z"></path>
  </symbol>
  <symbol fill="none" xmlns="http://www.w3.org/2000/svg" viewBox="0 0 24 24" id="menu">
    <path fill-rule="evenodd" clip-rule="evenodd"
      d="M2.25 7.188a.75.75 0 0 1 .75-.75h14.774a.75.75 0 0 1 0 1.5H3a.75.75 0 0 1-.75-.75ZM2.25 12.188a.75.75 0 0 1 .75-.75h18a.75.75 0 0 1 0 1.5H3a.75.75 0 0 1-.75-.75ZM2.25 17.188a.75.75 0 0 1 .75-.75h11.276a.75.75 0 0 1 0 1.5H3a.75.75 0 0 1-.75-.75Z"
      fill="#282829"></path>
  </symbol>
  <symbol xmlns="http://www.w3.org/2000/svg" viewBox="0 0 24 24" id="mob-menu">
    <path d="M2.992 17.386h11.53m-11.53-5.343H20.77M2.992 6.835h14.672" stroke="#000" stroke-width="1.75"
      stroke-linecap="round"></path>
  </symbol>
  <symbol xmlns="http://www.w3.org/2000/svg" viewBox="0 0 24 24" id="add">
    <path
      d="M6.546 12.563h4.595v4.595c0 .467.384.859.859.859a.863.863 0 0 0 .859-.86v-4.595h4.595a.863.863 0 0 0 .86-.858.863.863 0 0 0-.86-.86H12.86V6.25A.863.863 0 0 0 12 5.391a.863.863 0 0 0-.859.858v4.596H6.546a.863.863 0 0 0-.86.859c0 .474.393.858.86.858Z">
    </path>
  </symbol>
  <symbol xmlns="http://www.w3.org/2000/svg" viewBox="0 0 24 24" id="remove">
    <path
      d="M6.546 12.57h10.908c.46 0 .851-.384.851-.859a.867.867 0 0 0-.85-.859H6.544a.877.877 0 0 0-.85.86c0 .474.406.858.85.858Z"></path>
  </symbol>
  <symbol xmlns="http://www.w3.org/2000/svg" viewBox="0 0 24 24" id="close">
    <path
      d="M6.162 16.517a.871.871 0 0 0 .007 1.213.878.878 0 0 0 1.213.007l4.61-4.618 4.618 4.618a.871.871 0 0 0 1.213-.007c.324-.34.332-.89 0-1.213l-4.61-4.618 4.61-4.61a.864.864 0 0 0 0-1.214c-.339-.324-.889-.331-1.213-.007l-4.617 4.618-4.611-4.618c-.316-.317-.889-.332-1.213.007a.878.878 0 0 0-.007 1.213l4.618 4.61-4.618 4.619Z">
    </path>
  </symbol>
  <symbol xmlns="http://www.w3.org/2000/svg" viewBox="0 0 24 24" id="no-image">
    <path
      d="M5.212 3.466a.75.75 0 0 0-1.064 1.058l15.928 16.01a.75.75 0 0 0 1.063-1.058L5.212 3.465ZM21.122 17.443c.126-.323.19-.705.19-1.144V8.39c0-1.612-.86-2.456-2.487-2.456H16.77c-.588 0-.776-.098-1.145-.482l-.596-.64c-.391-.415-.79-.618-1.559-.618h-2.99c-.77 0-1.16.203-1.56.618l-.207.222 1.06 1.059c.322-.312.57-.4 1.136-.4h2.132c.663 0 .889.12 1.303.573l.58.64c.384.414.73.535 1.409.535h2.395c.694 0 1.078.361 1.078 1.085v7.6l1.317 1.318Z">
    </path>
    <path
      d="M16.056 12.377a4.053 4.053 0 0 0-4.262-4.262l4.262 4.262ZM7.932 12.186c0-.556.109-1.085.306-1.566l1.097 1.097a2.7 2.7 0 0 0 3.132 3.133l1.1 1.1a4.089 4.089 0 0 1-1.575.311 4.051 4.051 0 0 1-4.06-4.075Z">
    </path>
    <path
      d="M5.068 7.45c-.568.063-.888.42-.888 1.075v7.638c0 .731.392 1.093 1.078 1.093h9.616l1.5 1.499H5.16c-1.628 0-2.479-.844-2.479-2.456V8.39c0-1.087.387-1.824 1.137-2.19l1.25 1.25ZM16.317 9.489c0 .55.444.98.987.972.527 0 .971-.43.971-.972a.996.996 0 0 0-.971-.98.994.994 0 0 0-.987.98Z">
    </path>
  </symbol>
  <symbol xmlns="http://www.w3.org/2000/svg" viewBox="0 0 24 24" id="no-file">
    <path
      d="M4.657 3.378a.875.875 0 1 0-1.241 1.235l15.927 16.009a.875.875 0 1 0 1.241-1.235L4.657 3.378ZM18.471 10.551v4.372l-1.499-1.5V10.77h-2.654l-1.322-1.322a.934.934 0 0 0 .081.003h3.692l-4.144-4.204v3.76a.9.9 0 0 0 .003.073l-1.314-1.314V5.052H8.6L7.178 3.63c.243-.057.512-.085.807-.085h3.638c.95 0 1.477.15 2.117.798l3.94 4c.656.671.791 1.153.791 2.208ZM7.028 17.294V10.55l-1.5-1.5v8.34c0 1.628.844 2.479 2.457 2.479h8.03c.11 0 .217-.004.32-.012l-1.495-1.495H8.113c-.724 0-1.085-.376-1.085-1.07Z">
    </path>
  </symbol>
  <symbol xmlns="http://www.w3.org/2000/svg" viewBox="0 0 24 24" id="warning">
    <path d="M11.9925 19.4933C16.264 19.4933 19.7896 15.9676 19.7896 11.7037C19.7896 7.43973 16.2564 3.91406 11.9849 3.91406C7.72099 3.91406 4.20285 7.43973 4.20285 11.7037C4.20285 15.9676 7.72852 19.4933 11.9925 19.4933ZM11.9925 17.9414C8.5346 17.9414 5.76981 15.1616 5.76981 11.7037C5.76981 8.24581 8.5346 5.47349 11.9849 5.47349C15.4428 5.47349 18.2227 8.24581 18.2302 11.7037C18.2377 15.1616 15.4503 17.9414 11.9925 17.9414Z" ></path>
    <path d="M12.6666 12.0578C12.659 12.5022 12.418 12.7282 12.0036 12.7282C11.5817 12.7282 11.3407 12.4947 11.3256 12.0653L11.2201 8.42662C11.2051 7.98968 11.529 7.67327 11.9961 7.67327C12.4632 7.67327 12.7946 7.99721 12.7796 8.43415L12.6666 12.0578Z" ></path>
    <path d="M12.8926 14.4007C12.8926 14.8828 12.4933 15.2294 12.0036 15.2294C11.5215 15.2294 11.1147 14.8753 11.1147 14.4007C11.1147 13.9261 11.5139 13.572 12.0036 13.572C12.5008 13.572 12.8926 13.9261 12.8926 14.4007Z" ></path>
  </symbol>
  <symbol xmlns="http://www.w3.org/2000/svg" viewBox="0 0 24 24" id="disconnected-cloud">
    <path d="M18.4863 17.5421C20.332 17.1203 21.6278 15.6286 21.6278 13.8281C21.6278 12.2235 20.7162 10.8072 19.2171 10.1819C19.2246 6.76925 16.7687 4.31334 13.6121 4.31334C11.6082 4.31334 10.1015 5.34542 9.15986 6.71652C8.67018 6.59598 8.15037 6.60352 7.66823 6.73159L9.06946 8.13281C9.26533 8.12528 9.4838 8.15541 9.6872 8.21568C9.78514 8.24582 9.84541 8.22321 9.89061 8.14035C10.6364 6.82952 11.7363 5.8125 13.6046 5.8125C15.9701 5.8125 17.6576 7.68834 17.7706 9.88811C17.7932 10.2874 17.7631 10.7243 17.733 11.0935C17.7179 11.1989 17.7631 11.2517 17.861 11.2743C19.2246 11.5379 20.106 12.5022 20.106 13.8281C20.106 15.1465 18.9383 16.2087 17.4241 16.2087H17.1529L18.4863 17.5421ZM17.4316 19.5234C17.6727 19.757 18.0494 19.757 18.2829 19.5234C18.5164 19.2899 18.5164 18.9132 18.2829 18.6722L5.58899 5.98577C5.34792 5.7447 4.95618 5.75977 4.73017 5.98577C4.50417 6.21177 4.5117 6.61858 4.73017 6.83705L17.4316 19.5234ZM7.01282 17.7079H14.2826L12.7684 16.2012H7.02035C5.22738 16.2012 3.89396 14.9506 3.89396 13.4967C3.89396 11.99 4.82057 10.875 6.3574 10.875C6.47041 10.875 6.51561 10.8147 6.50807 10.7093C6.50807 10.4607 6.53821 10.2422 6.59848 10.0463L5.36298 8.80329C5.24245 9.08957 5.17465 9.4135 5.15958 9.75251C3.43441 10.0614 2.37219 11.6133 2.37219 13.4967C2.37219 15.7868 4.3761 17.7079 7.01282 17.7079Z"></path>
  </symbol>
    <symbol xmlns="http://www.w3.org/2000/svg" viewBox="0 0 24 24" id="connected-cloud">
    <path d="M17.4241 17.7079C19.7745 17.7079 21.6278 15.9827 21.6278 13.8281C21.6278 12.2235 20.7162 10.7997 19.2171 10.1744C19.2246 6.76925 16.7687 4.31334 13.6121 4.31334C11.6082 4.31334 10.1015 5.34543 9.15986 6.71652C7.24636 6.20424 5.23492 7.62807 5.15958 9.75251C3.43441 10.0614 2.37219 11.6058 2.37219 13.4967C2.37219 15.7868 4.3761 17.7003 7.01282 17.7003L17.4241 17.7079ZM17.4241 16.2012H7.02035C5.22738 16.2012 3.89396 14.9506 3.89396 13.4967C3.89396 11.99 4.82057 10.875 6.3574 10.875C6.47041 10.875 6.51561 10.8147 6.50807 10.7093C6.46287 8.47182 8.0675 7.70341 9.6872 8.21568C9.78514 8.24582 9.84541 8.22322 9.89061 8.14035C10.6364 6.82952 11.7363 5.8125 13.6046 5.8125C15.9701 5.8125 17.6576 7.68834 17.7706 9.88058C17.7932 10.2874 17.7631 10.7243 17.733 11.0859C17.7179 11.1914 17.7631 11.2517 17.861 11.2667C19.2246 11.5304 20.106 12.4947 20.106 13.8281C20.106 15.1465 18.9383 16.2012 17.4241 16.2012ZM11.45 14.5739C11.7137 14.5739 11.9472 14.4459 12.0979 14.2048L15.0586 9.45871C15.1414 9.3231 15.2318 9.14983 15.2318 8.96903C15.2318 8.60742 14.9154 8.33622 14.5388 8.33622C14.3052 8.33622 14.0868 8.46429 13.9436 8.71289L11.4199 12.894L10.1392 11.2592C9.99608 11.0633 9.80021 10.9579 9.56667 10.9579C9.19753 10.9579 8.89619 11.2517 8.89619 11.6284C8.89619 11.8016 8.95646 11.9674 9.08453 12.1256L10.772 14.2123C10.9604 14.4609 11.1788 14.5739 11.45 14.5739Z"></path>
  </symbol>
  <symbol xmlns="http://www.w3.org/2000/svg" viewBox="0 0 24 24" id="connected">
    <path d="M5.54382 14.4534H6.09377C6.0335 13.9788 5.99583 13.4665 6.07117 13.022H5.63423C3.84126 13.022 2.5681 11.7639 2.5681 9.95591C2.5681 8.16294 3.84126 6.88979 5.63423 6.88979H12.2863C14.0793 6.88979 15.3524 8.16294 15.3524 9.95591C15.3524 11.7639 14.0793 13.022 12.2863 13.022H9.98104C9.61944 13.2631 9.64957 14.1671 10.1166 14.4534H12.3767C14.9908 14.4534 16.8591 12.6077 16.8591 9.95591C16.8591 7.31166 14.9908 5.46596 12.3767 5.46596H5.54382C2.9297 5.46596 1.0614 7.31166 1.0614 9.95591C1.0614 12.6077 2.9297 14.4534 5.54382 14.4534ZM11.6158 18.0167H18.4411C21.0628 18.0167 22.9311 16.171 22.9311 13.5268C22.9311 10.875 21.0628 9.02929 18.4411 9.02929H17.8987C17.959 9.5039 17.9967 10.0162 17.9213 10.4607H18.3583C20.1512 10.4607 21.4244 11.7187 21.4244 13.5268C21.4244 15.3198 20.1512 16.5929 18.3583 16.5929H11.7062C9.91324 16.5929 8.64008 15.3198 8.64008 13.5268C8.64008 11.7187 9.91324 10.4607 11.7062 10.4607H14.0115C14.3731 10.2196 14.3429 9.31557 13.8759 9.02929H11.6158C8.99416 9.02929 7.13339 10.875 7.13339 13.5268C7.13339 16.171 8.99416 18.0167 11.6158 18.0167Z"></path>
  </symbol>
  <symbol xmlns="http://www.w3.org/2000/svg" viewBox="0 0 24 24" id="updating">
    <path d="M20.8067 10.7997H19.752C19.3075 6.98019 15.9928 3.91406 12 3.91406C9.79271 3.91406 7.7888 4.87835 6.40264 6.38504C6.0335 6.74665 6.04857 7.22879 6.3499 7.50753C6.65878 7.79381 7.10325 7.79381 7.47993 7.44727C8.60242 6.23438 10.2146 5.47349 12 5.47349C15.1791 5.47349 17.7481 7.80134 18.1775 10.7997H17.0248C16.4448 10.7997 16.2866 11.2291 16.6256 11.6961L18.4261 14.2425C18.7048 14.6191 19.1267 14.6267 19.3979 14.2425L21.2059 11.7037C21.5449 11.2291 21.3943 10.7997 20.8067 10.7997ZM3.19338 12.6152H4.2556C4.70007 16.4347 8.0148 19.5008 12 19.5008C14.2224 19.5008 16.2263 18.529 17.6125 17.0223C17.9741 16.6607 17.959 16.1786 17.6577 15.8998C17.3488 15.6136 16.9118 15.6136 16.5276 15.9676C15.4202 17.1805 13.8081 17.9414 12 17.9414C8.82842 17.9414 6.2595 15.6136 5.83009 12.6152H6.97518C7.54773 12.6152 7.71346 12.1858 7.37446 11.7188L5.56642 9.17243C5.29522 8.79576 4.87334 8.78823 4.60214 9.17243L2.7941 11.7112C2.44756 12.1858 2.60576 12.6152 3.19338 12.6152Z"></path>
  </symbol>
  <symbol xmlns="http://www.w3.org/2000/svg" viewBox="0 0 24 24" id="save">
    <path d="M17.846 18.8756C17.846 18.4085 17.5069 18.0544 17.0399 18.0544H12.0753C12.2787 18.0318 12.4746 17.9414 12.6253 17.7832L17.5823 12.8186C17.7631 12.6378 17.846 12.4344 17.846 12.2084C17.846 11.7413 17.4994 11.3948 17.0399 11.3948C16.8063 11.3948 16.5954 11.4927 16.4447 11.6434L14.7271 13.3384L12.7759 15.5232L12.8362 13.8959V4.59207C12.8362 4.08733 12.4972 3.74079 12 3.74079C11.5028 3.74079 11.1638 4.08733 11.1638 4.59207V13.8959L11.224 15.5156L9.27285 13.3384L7.55522 11.6434C7.40455 11.4927 7.19361 11.3948 6.95254 11.3948C6.493 11.3948 6.15399 11.7413 6.15399 12.2084C6.15399 12.4344 6.23686 12.6378 6.41766 12.8186L11.3747 17.7832C11.5254 17.9414 11.7212 18.0318 11.9246 18.0544H6.97514C6.50053 18.0544 6.15399 18.4085 6.15399 18.8756C6.15399 19.3426 6.50053 19.6967 6.97514 19.6967H17.0399C17.5069 19.6967 17.846 19.3426 17.846 18.8756Z"></path>
  </symbol>
</svg>
