<svg width="72" height="72" viewBox="0 0 72 73" fill="none" xmlns="http://www.w3.org/2000/svg">
<path d="M12 20.5C12 16.0817 15.5817 12.5 20 12.5C30.6667 12.5 41.3333 12.5 52 12.5C56.4183 12.5 60 16.0817 60 20.5C60 31.1667 60 41.8333 60 52.5C60 56.9183 56.4183 60.5 52 60.5C41.3333 60.5 30.6667 60.5 20 60.5C15.5817 60.5 12 56.9183 12 52.5C12 41.8333 12 31.1667 12 20.5ZM34.975 22.3925C34.2975 22.345 33.85 22.285 33.4 22.285C31.11 22.275 28.8175 22.2775 26.5275 22.2825C25.3492 22.2842 24.645 22.8875 24.415 24.0925C24.2975 24.705 24.155 25.3125 24.0375 25.925C23.12 30.745 22.0775 35.5475 21.3275 40.395C20.525 45.575 23.375 49.425 28.545 50.28C30.455 50.5975 32.4475 50.645 34.3875 50.535C40.925 50.1675 45.8075 46.1225 47.3275 39.7725C48.2075 36.095 48.845 32.3575 49.5825 28.6475C49.9046 27.0289 50.2155 25.4071 50.5383 23.7372C50.6701 23.0552 50.2046 22.3248 49.51 22.32V22.32C46.97 22.3125 44.4275 22.365 41.89 22.3075C40.8275 22.285 40.4725 22.7275 40.2875 23.7125C39.3775 28.5775 38.4075 33.4325 37.43 38.285C37.285 39.01 37.08 39.755 36.74 40.405C36.105 41.6225 34.27 42.165 32.7525 41.605C31.3925 41.1025 31.565 39.98 31.7825 38.8725C32.34 36.015 32.895 33.1575 33.45 30.3C33.9474 27.7358 34.4397 25.1715 34.977 22.395C34.9773 22.3937 34.9763 22.3925 34.975 22.3925V22.3925Z" fill="#455DA7"/>
<path d="M34.9686 22.2995C34.4275 25.0979 33.9318 27.6798 33.431 30.2592C32.8724 33.1355 32.3137 36.0118 31.7525 38.8882C31.5336 40.003 31.36 41.1329 32.7289 41.6387C34.2589 42.2024 36.106 41.6563 36.7427 40.4308C37.0824 39.774 37.2888 39.0266 37.4373 38.2968C38.4212 33.4123 39.3951 28.5253 40.3136 23.6282C40.4998 22.6367 40.8572 22.1888 41.9267 22.214C44.4834 22.2693 47.0401 22.219 49.5969 22.2266C49.9618 22.2266 50.3267 22.3121 50.8778 22.3851C50.4626 24.5191 50.075 26.5599 49.6699 28.5958C48.9275 32.3327 48.2858 36.0924 47.4 39.7941C45.87 46.186 40.9553 50.2576 34.3747 50.6275C32.4219 50.7383 30.4188 50.6905 28.4937 50.3709C23.2921 49.5102 20.4208 45.6349 21.2286 40.4207C21.9836 35.5413 23.0354 30.7096 23.9565 25.8553C24.0747 25.2388 24.2182 24.6273 24.3365 24.0107C24.5697 22.8012 25.2785 22.1938 26.4629 22.1888C28.768 22.1838 31.0756 22.1838 33.3807 22.1913C33.8311 22.1913 34.2841 22.2517 34.9661 22.2995H34.9686Z" fill="white"/>
</svg>
