<svg width="24" height="24" viewBox="0 0 24 24" fill="none" xmlns="http://www.w3.org/2000/svg">
<path d="M4.65655 3.37838C4.31571 3.0358 3.7617 3.03439 3.41912 3.37523C3.07654 3.71606 3.07512 4.27008 3.41596 4.61266L19.3434 20.6216C19.6842 20.9642 20.2383 20.9656 20.5808 20.6248C20.9234 20.2839 20.9248 19.7299 20.584 19.3873L4.65655 3.37838Z" fill="black"/>
<path d="M18.4712 10.5511V14.9231L16.9721 13.4239V10.7695H14.3177L12.996 9.44783C13.0216 9.45007 13.0487 9.45117 13.0773 9.45117H16.7687L12.6253 5.24749V9.0067C12.6253 9.03228 12.6262 9.05668 12.6281 9.0799L11.3144 7.76626V5.05162H8.59979L7.17802 3.62985C7.42091 3.57337 7.68993 3.54492 7.98463 3.54492H11.6233C12.5725 3.54492 13.0999 3.69559 13.7402 4.34347L17.6802 8.34375C18.3356 9.01423 18.4712 9.49637 18.4712 10.5511Z" fill="black"/>
<path d="M7.02788 17.2935V10.5508L5.52872 9.05161V17.3915C5.52872 19.0187 6.37247 19.87 7.98463 19.87H16.0153C16.1256 19.87 16.2323 19.866 16.3353 19.8582L14.8404 18.3633H8.1127C7.38949 18.3633 7.02788 17.9866 7.02788 17.2935Z" fill="black"/>
</svg>
