<svg width="24" height="24" viewBox="0 0 24 24" fill="none" xmlns="http://www.w3.org/2000/svg">
<path d="M5.21166 3.46649C4.91951 3.17285 4.44464 3.17164 4.151 3.46379C3.85736 3.75593 3.85615 4.2308 4.14829 4.52444L20.0757 20.5334C20.3679 20.827 20.8428 20.8283 21.1364 20.5361C21.43 20.244 21.4313 19.7691 21.1391 19.4755L5.21166 3.46649Z" fill="black"/>
<path d="M21.1224 17.4429C21.2478 17.1196 21.3114 16.7378 21.3114 16.2991V8.38895C21.3114 6.77679 20.4526 5.93304 18.8253 5.93304H16.7687C16.1811 5.93304 15.9928 5.8351 15.6236 5.45089L15.0285 4.81055C14.6367 4.39621 14.2375 4.1928 13.469 4.1928H10.4782C9.70983 4.1928 9.31809 4.39621 8.91881 4.81055L8.71227 5.03278L9.77116 6.09166C10.0941 5.77986 10.3416 5.69197 10.9077 5.69197H13.0396C13.7026 5.69197 13.9286 5.8125 14.3429 6.26451L14.923 6.90486C15.3072 7.3192 15.6537 7.43973 16.3318 7.43973H18.7274C19.4205 7.43973 19.8047 7.80134 19.8047 8.52456V16.1252L21.1224 17.4429Z" fill="black"/>
<path d="M16.0563 12.3768C16.0591 12.3135 16.0606 12.2498 16.0606 12.1858C16.0606 9.91825 14.2525 8.11021 11.9925 8.11021C11.926 8.11021 11.86 8.11179 11.7944 8.1149L16.0563 12.3768Z" fill="black"/>
<path d="M7.93193 12.1858C7.93193 11.6295 8.04076 11.1008 8.23829 10.6197L9.33528 11.7167C9.30912 11.8689 9.29549 12.0256 9.29549 12.1858C9.29549 13.685 10.5084 14.8903 11.9925 14.8903C12.1547 14.8903 12.3135 14.8762 12.4677 14.8492L13.5678 15.9493C13.0842 16.1506 12.5522 16.2614 11.9925 16.2614C9.73996 16.2614 7.93193 14.4534 7.93193 12.1858Z" fill="black"/>
<path d="M5.06831 7.44973C4.50039 7.5125 4.18025 7.87077 4.18025 8.52456V16.1635C4.18025 16.8943 4.572 17.2559 5.25754 17.2559H14.8744L16.3736 18.755H5.15961C3.53237 18.755 2.68109 17.9113 2.68109 16.2991V8.38895C2.68109 7.30241 3.06777 6.5649 3.81807 6.19949L5.06831 7.44973Z" fill="black"/>
<path d="M16.3167 9.48884C16.3167 10.0388 16.7612 10.4682 17.3036 10.4607C17.8309 10.4607 18.2754 10.0313 18.2754 9.48884C18.2754 8.9615 17.8234 8.50949 17.3036 8.50949C16.7612 8.50949 16.3167 8.9615 16.3167 9.48884Z" fill="black"/>
</svg>
